<svg width="52" height="50" viewBox="0 0 52 50" fill="none" xmlns="http://www.w3.org/2000/svg">
<path d="M44.1882 23.9854C41.9413 15.776 43.3327 9.91415 46.3279 5.54346L40.9787 0H11.8768L6.74198 5.32986C11.3429 14.8168 8.0262 20.8943 7.91901 23.667C4.70951 20.5759 2.88935 22.3874 2.56984 23.667C1.39282 27.5037 0.430176 28.8901 0.430176 28.8901C1.07125 30.4901 1.82158 30.7037 2.14108 30.7037C2.24827 38.0587 8.77446 41.8974 16.051 44.3497C23.4326 46.9089 25.7867 50 25.7867 50C25.7867 50 30.1732 45.6293 37.662 43.711C45.258 40.9382 49.8589 35.7152 49.4302 30.7057C50.9288 30.7057 51.1411 30.2785 51.5698 28.7874C51.5698 28.7874 50.5 28.0418 49.5374 24.4167C49.5374 23.8847 49.323 23.2439 48.8963 22.4984C46.8638 20.3664 44.2954 23.7779 44.1882 23.9915V23.9854Z" fill="#808184"/>
<path d="M4.38619 25.5853C4.49338 25.4785 5.45602 23.8806 5.56321 25.2649C5.6704 26.5445 3.31636 25.5853 3.10198 23.8786C2.99479 22.9194 6.95461 20.8943 7.4885 26.7561C7.81007 34.8587 16.7975 37.2042 20.6481 38.8022C25.249 41.3613 25.6777 42.3205 25.6777 42.3205C25.6777 42.3205 27.7102 40.1885 30.8125 39.0158C38.6229 36.243 44.508 33.5791 44.4008 26.5425C44.7224 21.6378 50.2859 21.4262 47.9319 25.3697C47.2908 26.5425 44.508 26.8629 46.6477 24.6241L47.3959 26.0105C47.5031 26.0105 47.7175 25.9037 47.8247 25.6901C47.8247 25.6901 46.9692 23.665 46.8621 23.665C46.1138 23.8786 45.4707 24.8377 45.5778 25.7969C45.685 27.7152 49.0017 30.5948 48.7873 32.1927C47.3959 40.1885 35.5206 43.7069 35.5206 43.7069C30.0642 45.2 25.8921 49.1435 25.8921 49.1435C23.4309 45.732 14.5506 43.1728 14.5506 43.1728C3.53074 38.6954 2.78247 32.8315 2.99479 31.02C3.10198 29.6336 5.6704 27.3948 5.6704 27.3948C6.31148 26.6493 6.52585 24.3037 5.13651 23.7697C5.02933 23.7697 4.06668 25.3676 4.06668 25.3676C4.17387 25.3676 4.38825 25.5812 4.38825 25.5812L4.38619 25.5853Z" fill="#50B748"/>
<path d="M8.66621 27.1832C8.98778 33.2587 14.7657 35.2858 20.4344 37.2042C23.9654 38.4838 25.7835 40.5089 25.7835 40.5089C28.2448 38.4838 29.4218 37.9497 31.4543 37.311C37.6589 35.179 44.5066 32.9403 43.0101 24.1989C39.8006 11.0869 45.0426 5.86382 45.0426 5.86382L40.2273 1.06592H12.1952L8.02307 5.65021C11.8757 13.7528 9.73398 20.3623 9.20009 23.667C8.55902 26.5445 8.77134 25.1602 8.66415 27.5036V27.1832H8.66621Z" fill="#0054A5"/>
<path d="M25.9987 3.73001L26.213 3.09125L25.572 2.77084H26.3202L26.5346 2.13208L26.7469 2.77084H27.3901L26.8541 3.09125L27.0685 3.73001L26.5346 3.41166L25.9987 3.73001Z" fill="white"/>
<path d="M26.106 10.98C30.5997 10.98 34.238 14.6051 34.238 18.9758C34.238 23.3465 30.5997 26.8648 26.106 26.8648C21.6123 26.8648 17.9741 23.3465 17.9741 18.9758C17.9741 14.6051 21.6123 10.98 26.106 10.98Z" fill="white"/>
<path d="M17.9741 18.9758C17.9741 23.3465 21.6123 26.8648 26.106 26.8648C30.5997 26.8648 34.238 23.3465 34.238 18.9758C34.238 14.6051 30.5997 10.98 26.106 10.98C21.6123 10.98 17.9741 14.4983 17.9741 18.9758ZM18.0812 18.9758C18.0812 14.6051 21.7195 10.98 26.106 10.98C30.4925 10.98 34.238 14.6051 34.238 18.9758C34.238 23.3465 30.5997 26.8648 26.106 26.8648C21.6123 26.8648 18.0812 23.2397 18.0812 18.9758Z" fill="#231F20"/>
<path d="M26 11.4072C30.2793 11.4072 33.596 14.7119 33.596 18.869C33.596 23.0261 30.1721 26.3308 26 26.3308C21.8278 26.3308 18.4039 23.0261 18.4039 18.869C18.4039 14.7119 21.8278 11.4072 26 11.4072Z" fill="#8DD7F7"/>
<path d="M18.1865 18.9759C18.1865 23.2398 21.7175 26.6513 25.9969 26.6513C30.2762 26.6513 33.8073 23.2398 33.8073 18.9759C33.8073 14.712 30.3834 11.3005 25.9969 11.3005C21.7175 11.1937 18.1865 14.712 18.1865 18.9759ZM18.6152 18.9759C18.6152 14.9256 21.9319 11.7256 25.9969 11.7256C30.0618 11.7256 33.3785 14.9235 33.3785 18.9759C33.3785 23.0282 30.169 26.2241 25.9969 26.2241C21.8247 26.2241 18.6152 22.9193 18.6152 18.9759Z" fill="#0094D9"/>
<path d="M23.859 25.9039C23.7518 25.9039 23.7518 26.0107 23.7518 26.1175C23.859 26.2243 23.9661 26.2243 24.0733 26.2243C25.9986 25.1583 26.3202 25.2651 28.2455 26.2243C28.3527 26.3311 28.4599 26.2243 28.567 26.1175C28.567 26.0107 28.567 25.9039 28.4599 25.7971C26.4274 24.8379 25.8914 24.6243 23.859 25.9039Z" fill="#0094D9"/>
<path d="M18.4008 18.7622C18.2937 18.7622 18.1865 18.869 18.1865 18.9758C18.1865 19.0826 18.2937 19.1894 18.4008 19.1894H33.7001C33.8073 19.1894 33.9145 19.0826 33.9145 18.9758C33.9145 18.869 33.8073 18.7622 33.7001 18.7622H18.4008Z" fill="#0094D9"/>
<path d="M28.4602 11.7259C26.7493 12.8986 25.7846 13.0054 23.9665 11.7259C23.8593 11.6191 23.7521 11.7259 23.6449 11.7259C23.5377 11.8327 23.6449 11.9395 23.6449 12.0463C25.6774 13.5394 26.8544 13.219 28.5674 12.0463C28.6746 11.9395 28.6746 11.8327 28.6746 11.7259C28.6746 11.6191 28.4602 11.6191 28.4602 11.7259Z" fill="#0094D9"/>
<path d="M21.5052 12.6851C21.398 12.7919 21.5052 12.8987 21.6123 13.0055C24.8218 15.0306 27.2831 15.6714 30.707 13.1123C30.8141 13.0055 30.8141 12.8987 30.707 12.7919C30.5998 12.6851 30.4926 12.6851 30.3854 12.7919C27.0687 15.2442 24.8218 14.7102 21.7195 12.6851C21.7195 12.5783 21.6123 12.5783 21.5052 12.6851Z" fill="#0094D9"/>
<path d="M20.0082 13.9645C19.901 14.0713 20.0082 14.1781 20.0082 14.2849C25.4646 18.1236 28.6741 16.31 31.1353 14.9237L31.8836 14.4964C31.9908 14.3896 31.9908 14.2828 31.9908 14.176C31.8836 14.0692 31.7764 14.0692 31.6692 14.0692L30.9209 14.4964C28.3525 15.9896 25.5718 17.5876 20.2226 13.9624C20.2226 13.7488 20.1154 13.8556 20.0082 13.9624V13.9645Z" fill="#0094D9"/>
<path d="M19.1513 21.64C19.0441 21.7468 19.0441 21.8536 19.0441 21.9604C19.1513 22.0672 19.2584 22.0672 19.3656 22.0672C20.5427 21.4284 26.535 18.4421 33.0611 22.0672C33.1683 22.174 33.2755 22.0672 33.3827 21.9604C33.4899 21.8536 33.3827 21.7468 33.2755 21.64C26.535 17.9081 20.3303 21.0012 19.1533 21.64H19.1513Z" fill="#0094D9"/>
<path d="M20.1126 23.6674C20.0054 23.6674 20.0054 23.881 20.0054 23.9878C20.0054 24.0946 20.2197 24.0946 20.3269 24.0946C26.1049 21.4287 26.5316 21.6423 31.454 23.7742L31.7756 23.881C31.8828 23.881 31.99 23.881 32.0972 23.7742C32.0972 23.6674 32.0972 23.5606 31.99 23.4538L31.6684 23.347C26.6408 21.1083 26.1049 20.8947 20.1126 23.6674Z" fill="#0094D9"/>
<path d="M28.2452 12.2601C30.2776 13.4329 32.4173 16.2036 32.4173 19.2968C32.4173 21.8559 30.9187 24.0947 27.9236 25.7994L28.138 26.1198C31.9906 23.8811 32.8461 21.2151 32.8461 19.2968C32.8461 16.0988 30.5992 13.1145 28.4595 11.835L28.2452 12.2622V12.2601Z" fill="#0094D9"/>
<path d="M27.4976 12.578C29.3157 14.2827 30.3855 16.5215 30.3855 18.867C30.3855 21.2125 29.3157 23.6649 27.4976 25.4764L27.8191 25.7968C29.7444 23.8785 30.9214 21.4262 30.8142 18.867C30.8142 16.4146 29.7444 14.0691 27.8191 12.2576L27.4976 12.578Z" fill="#0094D9"/>
<path d="M26.9607 12.6852C29.5291 16.5239 28.9932 22.7061 26.8535 25.2653L27.1751 25.5857C29.5291 22.9197 30.063 16.6307 27.3895 12.4736L26.9607 12.6872V12.6852Z" fill="#0094D9"/>
<path d="M25.2479 25.4785L25.5695 25.2649C24.3925 23.4534 21.8241 18.5487 25.2479 12.6848L24.9264 12.4712C21.3953 18.6534 23.9637 23.6649 25.2479 25.4764V25.4785Z" fill="#0094D9"/>
<path d="M24.6084 25.7993L24.93 25.4789C20.9722 21.3218 20.9722 16.6307 24.8228 12.5804L24.5012 12.26C20.4363 16.5239 20.5434 21.4286 24.6084 25.7993Z" fill="#0094D9"/>
<path d="M19.5785 18.9763C19.4713 21.0014 20.2196 23.7742 24.0722 26.1177L24.2866 25.7973C21.3986 24.0905 19.9001 21.747 20.0072 19.0811C20.1144 15.8831 22.5757 13.1104 24.1794 12.258L23.965 11.8308C22.0397 12.79 19.6857 15.7763 19.5785 18.9743V18.9763Z" fill="#0094D9"/>
<path d="M26.2141 23.2397H25.8909V25.2665H26.2141V23.2397Z" fill="#0094D9"/>
<path d="M25.8909 18.2285V24.6243C25.8909 24.7311 25.9981 24.8379 26.1053 24.8379C26.2125 24.8379 26.3197 24.7311 26.3197 24.6243V18.2285C26.3197 18.1217 26.2125 18.0149 26.1053 18.0149C25.9981 18.0149 25.8909 18.1217 25.8909 18.2285Z" fill="#0094D9"/>
<path d="M33.9163 21.5332C40.6569 25.372 39.3727 27.3971 25.3576 18.9741C18.9386 15.1353 8.02594 7.88715 20.1157 13.751L20.33 13.4306C6.63454 7.24839 18.9386 15.4558 24.9309 19.1877C40.123 28.5678 41.5144 25.3699 34.0256 21.106L33.9184 21.5332H33.9163Z" fill="white"/>
<path d="M32.3113 13.7508C40.2289 9.16655 40.6576 11.8325 26.2139 19.6147C19.5805 23.133 7.38357 28.9969 18.6178 21.7467L18.4035 21.3194C6.20655 29.8472 20.0092 23.2378 26.2139 19.9331C42.049 11.6168 40.3361 8.52574 31.9918 13.4304L32.3134 13.7508H32.3113Z" fill="white"/>
<path d="M22.2536 17.6968H21.7198L19.4729 22.0675H23.2183H25.358L25.4652 22.1743L25.358 22.2811H25.4652H26.6422H26.7474L26.6422 22.0675H30.3856H32.7397V21.9607L30.3856 17.6968H28.6747H22.2536Z" fill="#231F20"/>
<path d="M28.6743 17.5901H21.6122L19.3654 21.9608V22.0676L19.4725 22.1744H25.4648V22.2812L25.572 22.388H26.8562L26.9634 22.2812V22.1744H32.8485L32.9557 22.0676V21.9608L32.8485 21.854L30.6017 17.5901H28.6764H28.6743ZM22.2553 17.8037H30.3873C30.3873 17.9105 32.6342 22.0676 32.6342 22.0676H26.6419V22.2812H25.4648V22.1744L25.3577 22.0676H19.4725C19.4725 22.0676 21.7194 17.9105 21.7194 17.8037H22.2553Z" fill="#231F20"/>
<path d="M19.4716 22.0674V22.1742V22.281H25.3567H25.4639H25.3567H25.2495V22.3878H25.3567L25.4639 22.4946H26.6409L26.7461 22.3878H26.8533V22.281H26.7461H32.7384V22.1742V22.0674H26.6409V22.1742V22.281H25.5711H25.4639L25.5711 22.1742V22.0674H25.4639H19.5788H19.4716Z" fill="#231F20"/>
<path d="M32.6316 22.0674H26.5321L26.4249 22.1742V22.281H25.4623V22.1742L25.3551 22.0674H19.3628V22.1742L19.47 22.281H25.2479V22.3878L25.3551 22.4946H25.4623L25.5695 22.6014H26.8537L26.9609 22.4946H27.0681V22.3878H32.846L32.9532 22.281L33.0604 22.1742V22.0674H32.6316ZM19.472 22.1742C19.5435 22.1742 19.5435 22.1742 19.472 22.1742H25.3572V22.281H26.427L26.5342 22.1742H26.6414L26.5342 22.281V22.3878L26.427 22.4946H25.25L25.3572 22.3878V22.281L19.472 22.1742Z" fill="#231F20"/>
<path d="M22.3608 17.4832L21.9341 17.6968L19.9017 21.8538H20.8643L21.7198 21.747L22.7896 21.6402L23.8594 21.4266L24.3954 21.3219L24.8221 21.4266L25.2508 21.5334L25.4652 21.747L25.5724 22.0674L25.6775 22.1742H26.535L26.6422 21.8538L26.7474 21.5334L27.0689 21.3219L27.3905 21.2151H27.8172L28.4603 21.3219L29.1014 21.5334L30.2784 21.747L31.3483 21.8538H32.2058L30.1712 17.8036L29.7445 17.4832L26.2135 19.6151L22.3608 17.4832Z" fill="white"/>
<path d="M21.9341 17.6968L19.9017 21.8538L20.0089 21.9606H20.9715L21.827 21.8538L22.8968 21.747L23.9666 21.5334L24.5026 21.4266L24.8241 21.5334L25.2529 21.6402L25.4673 21.8538L25.5745 22.1742L25.6817 22.2811H26.7515L26.8587 21.9606L26.9659 21.6402L27.2874 21.4266L27.609 21.3198H28.0378L28.5737 21.4266L29.2148 21.6402L30.3918 21.8538L31.4616 21.9606H32.3171L32.4243 21.8538L30.3918 17.8036L29.9631 17.4832H29.8559L26.3248 19.6151C26.2176 19.6151 22.5793 17.4832 22.5793 17.4832H22.4722L21.9362 17.6968H21.9341ZM21.9341 17.6968C21.9341 17.6968 22.2557 17.59 22.3629 17.4832C22.4701 17.4832 26.1084 19.6151 26.1084 19.6151H26.2155L29.7466 17.4832C29.8538 17.4832 30.1754 17.6968 30.1754 17.6968C30.1754 17.6968 31.9935 21.4287 32.1007 21.6402H31.3524L30.2826 21.5334L29.1055 21.4266L28.4645 21.213L27.8234 21.1062H27.3946L26.9659 21.213L26.6443 21.4266L26.4299 21.747C26.4299 21.747 26.4299 21.9606 26.3227 22.0674H25.5745L25.3601 21.6402L25.1457 21.4266L24.8241 21.3198L24.5026 21.213L23.8615 21.3198L22.7917 21.5334L21.7218 21.6402L20.8664 21.747H20.0109C20.1181 21.5334 21.9362 17.6968 21.9362 17.6968H21.9341Z" fill="#231F20"/>
<path d="M26.1048 17.4829H25.9973V21.641H26.1048V17.4829Z" fill="#231F20"/>
<path d="M20.6632 21.3122L19.927 21.7463L19.9816 21.8382L20.7178 21.4041L20.6632 21.3122Z" fill="#231F20"/>
<path d="M31.4549 21.5333L32.2052 21.8537V21.7469L31.5621 21.4265L31.4549 21.5333Z" fill="#231F20"/>
<path d="M22.2526 17.4831L20.5417 21.4266H21.1828L22.0403 21.2151L22.8957 21.1083L23.7512 20.8946L24.2871 20.7878H24.6066L25.0354 20.8946L25.357 21.0015L25.6765 21.1083L25.7837 21.3219L25.998 21.5334L26.1052 21.747L26.2124 21.5334L26.4268 21.2151L26.6412 21.0015L26.9607 20.8946L27.3894 20.7878H27.711H28.0305L28.7808 20.8946L29.9579 21.2151L30.9205 21.4266H31.4544L31.5616 21.5334L29.8507 17.5899L29.3147 17.4831H28.7808L28.3521 17.3763L28.0305 17.2695L27.6038 17.1627L27.3894 17.0559H27.0679H26.7463H26.534L26.4268 17.1627L26.3196 17.2695L26.2124 17.3763L26.1052 17.4831L25.998 17.3763V17.2695L25.7837 17.1627L25.4642 17.0559L25.2498 16.9512H24.821L24.4995 17.1627H24.0728L23.8584 17.2695L23.5368 17.3763H23.2173L22.6814 17.4831H22.467H22.2526Z" fill="#231F20"/>
<path d="M24.4967 17.0559L24.1751 17.1627L23.8535 17.2695L23.532 17.3763L23.2104 17.4831L22.6744 17.3763H22.1385L20.5327 21.4266L20.6399 21.5334L21.1759 21.4266L22.0313 21.3198L22.8868 21.213L23.7422 20.9994L24.2782 20.8926H24.5997L24.9213 20.9994L25.2429 21.1062L25.5644 21.213L25.6716 21.3198L25.7788 21.5334L25.886 21.747H25.9932L26.1004 21.5334L26.3148 21.213L26.5291 20.9994L26.8507 20.8926L27.1723 20.7858H27.9205L28.6688 20.8926L29.7386 21.213L30.7013 21.3198L31.3424 21.4266L31.4495 21.5334L31.5567 21.4266L29.8438 17.4831L29.3078 17.3763H28.7719L28.238 17.2695L28.0236 17.1627L27.702 17.0559L27.3805 16.9491H26.525L26.3106 17.0559L26.2034 17.2695H26.0963L25.9891 17.3763L25.8819 17.2695V17.1627L25.7747 17.0559L25.5603 16.9491L25.3459 16.8423H24.9172L24.4884 17.0559H24.4967ZM22.4642 17.5878H22.6786L23.1073 17.481L23.4289 17.3742L23.7505 17.2674L24.072 17.1606L24.3936 17.0538L24.8224 16.947H25.2511L25.4655 17.0538L25.6799 17.1606V17.2674L25.8942 17.3742V17.481L26.0014 17.5878H26.1086L26.2158 17.481H26.323L26.4302 17.2674H27.2856L27.6072 17.3742L27.9288 17.481L28.2504 17.5878L28.7842 17.6946H29.3202L29.7489 17.8015C29.7489 17.9083 31.2475 21.3198 31.4619 21.5334L30.8208 21.4266L29.8582 21.3198L28.7884 20.9994L28.0401 20.8926H27.2918L26.9703 20.7858L26.5415 20.8926L26.3271 21.1062L26.1127 21.4266V21.5334C26.1127 21.4266 26.0056 21.4266 26.0056 21.4266L25.8984 21.3198L25.684 21.1062L25.3624 20.9994L25.0409 20.8926L24.6121 20.7858H23.7566L22.9012 20.9994L22.0457 21.1062L21.1903 21.213C21.1903 21.213 20.8687 21.213 20.7615 21.3198C20.7615 21.213 22.2601 17.5878 22.4724 17.5878H22.4642Z" fill="#231F20"/>
<path d="M22.3598 17.4831L20.5417 21.4266L21.29 21.3219L22.1475 21.1083L22.8957 21.0015L23.7512 20.7878L24.3943 20.681H24.6066L25.0354 20.7878L25.357 20.8946L25.6765 21.1083L25.7837 21.2151L25.998 21.4266L26.1052 21.6402L26.2124 21.4266L26.4268 21.1083L26.6412 20.8946L26.9607 20.7878L27.3894 20.681H27.711H28.0305L28.7808 20.8946L29.9579 21.1083L30.8133 21.3219L31.3472 21.4266H31.5616L29.8507 17.4831H29.2075L28.7808 17.3763L28.3521 17.2695L28.0305 17.1627L27.6038 17.0559H27.3894L27.0679 16.9512H26.7463L26.534 17.0559L26.4268 17.1627H26.3196L26.2124 17.3763H26.1052V17.4831L25.998 17.3763V17.1627H25.8909L25.7837 17.0559L25.4642 16.9512H25.357H24.821L24.4995 17.0559L24.0728 17.1627L23.8584 17.2695L23.644 17.3763H23.2173H22.6814L22.467 17.4831H22.3598Z" fill="#D0D2D3"/>
<path d="M26.5355 16.951L26.4284 17.0578L26.3212 17.1646C26.3212 17.1646 26.1068 17.2714 26.1068 17.3783L25.9996 17.2714L25.8924 17.0578L25.678 16.951L25.4637 16.8442H24.8226L24.3938 16.951L23.9651 17.0578L23.6435 17.1646L23.4291 17.2714H23.1075L22.6788 17.3783L22.3572 17.4851H22.25L20.5391 21.3238L20.6463 21.4306L21.2874 21.3238L22.1428 21.217L22.9983 21.1102L23.8538 20.8966L24.3897 20.7898H24.7113L25.14 20.8966L25.4616 21.0034L25.7832 21.1102L26.1047 21.4306L26.2119 21.751H26.3191L26.4263 21.5374L26.6407 21.217L26.8551 21.0034L27.1766 20.8966L27.6054 20.7898H28.0341L28.7824 20.8966L29.9594 21.217L30.8149 21.3238L31.456 21.4306L31.5631 21.5374L31.6703 21.4306L29.9594 17.4871H29.2112L28.6752 17.3803L28.2465 17.2735L28.0321 17.1667L27.7105 17.0599H27.3889L27.0674 16.9531H26.5314L26.5355 16.951ZM26.214 17.483L26.5355 17.1626L26.6427 17.0558L26.8571 16.949H27.1787L27.5003 17.0558H27.8218L28.1434 17.1626L28.465 17.2694L28.8937 17.3762L29.4297 17.483H29.9656C29.9656 17.5898 31.4642 21.0013 31.5714 21.2149L30.9303 21.1081H29.9677L28.7906 20.7877L28.0424 20.6809H27.4013L26.9726 20.7877L26.651 20.8945L26.3294 21.1081L26.115 21.4285V21.5353C26.115 21.4285 26.0078 21.4285 26.0078 21.4285L25.9007 21.2149L25.7935 21.1081L25.4719 21.0013L25.1503 20.8945L24.7216 20.7877H24.4L23.7589 20.6809L22.9035 20.8945L22.1552 21.1081L21.2998 21.2149C21.2998 21.2149 20.871 21.2149 20.7638 21.3217C20.871 21.1081 22.4747 17.6966 22.4747 17.5898L22.7963 17.483L23.3322 17.3762H23.6538L23.8682 17.2694L24.1897 17.1626L24.6185 17.0558L24.9401 16.949H25.5812L25.7955 17.0558L25.9027 17.1626L26.0099 17.2694L26.1171 17.3762L26.2243 17.483H26.214Z" fill="#231F20"/>
<path d="M26.1048 17.4829H25.9973V21.641H26.1048V17.4829Z" fill="#231F20"/>
<path d="M38.6243 6.7164V6.50279C38.6957 6.50279 38.7315 6.46719 38.7315 6.39599C38.8387 6.39599 38.8387 6.28919 38.8387 6.28919H39.1602C39.1602 6.36039 39.1245 6.43159 39.053 6.50279C39.053 6.7164 38.8387 6.7164 38.6243 6.7164ZM38.6243 6.18238V5.96878H38.8387V5.86198C38.7672 5.79077 38.6957 5.75517 38.6243 5.75517V5.43477C38.8387 5.43477 38.9458 5.54157 39.1602 5.64837C39.2674 5.75517 39.2674 5.96878 39.2674 6.18238H38.6263H38.6243ZM40.2301 5.86198H40.1229C40.0514 5.86198 39.9799 5.89758 39.9085 5.96878C39.8013 5.96878 39.8013 6.07558 39.8013 6.07558V6.60959H39.4797V5.54362H39.8013V5.75723C39.9085 5.65042 40.0157 5.43682 40.1229 5.43682C40.1229 5.43682 40.2301 5.43682 40.2301 5.54362V5.86403V5.86198ZM41.5143 6.39599C41.5143 6.60959 41.2999 6.7164 40.9783 6.7164C40.6568 6.7164 40.3372 6.60959 40.3372 6.39599H40.6588C40.6588 6.50279 40.766 6.50279 40.8732 6.50279C40.9804 6.50279 41.0876 6.39599 41.0876 6.39599L40.9804 6.28919C40.9089 6.28919 40.8375 6.25358 40.766 6.18238C40.5516 6.18238 40.4444 6.07558 40.4444 6.07558C40.373 6.00438 40.3372 5.89758 40.3372 5.75517C40.3372 5.64837 40.4444 5.64837 40.4444 5.54157C40.5516 5.43477 40.6588 5.43477 40.8732 5.43477C40.9804 5.43477 41.1948 5.54157 41.302 5.54157C41.3734 5.61277 41.4091 5.68397 41.4091 5.75517H41.0876C41.0876 5.64837 40.9804 5.64837 40.9804 5.64837C40.8732 5.64837 40.766 5.64837 40.766 5.75517C40.766 5.86198 40.8732 5.86198 41.0876 5.86198C41.1948 5.86198 41.302 5.96878 41.4091 5.96878C41.4091 6.07558 41.5163 6.18238 41.5163 6.39599H41.5143ZM42.0502 5.43682H41.7287V5.11641H42.0502V5.43682ZM42.0502 6.7164H41.7287V5.54362H42.0502V6.7164ZM43.0129 6.7164H42.6913C42.5841 6.7164 42.4769 6.7164 42.4769 6.60959C42.3697 6.60959 42.3697 6.50279 42.3697 6.39599V5.75723H42.1553V5.54362H42.3697V5.22321H42.6913V5.54362H43.0129V5.75723H42.7985V6.39599H43.0129V6.7164ZM44.2971 5.54362L43.8683 6.7164C43.7611 6.8232 43.7611 6.93 43.7611 6.93C43.6897 7.0012 43.5825 7.0368 43.4396 7.0368H43.2252V6.8232H43.3324C43.4396 6.8232 43.4396 6.7164 43.4396 6.60959L43.0108 5.54362H43.4396L43.6539 6.28919L43.8683 5.54362H44.2971ZM38.6263 5.43682V5.65042C38.5191 5.65042 38.412 5.75723 38.412 5.97083H38.6263V6.18444H38.412C38.412 6.39804 38.5191 6.50484 38.6263 6.50484V6.71845C38.1976 6.71845 37.9853 6.50484 37.9853 6.18444C37.9853 5.97083 38.0925 5.86403 38.0925 5.75723C38.3068 5.54362 38.414 5.43682 38.6284 5.43682H38.6263ZM31.1375 6.7164V6.50279C31.209 6.50279 31.2447 6.46719 31.2447 6.39599C31.3519 6.39599 31.3519 6.28919 31.3519 6.28919V6.07558H31.2447C31.2447 6.07558 31.2447 6.18238 31.1375 6.18238V5.96878H31.2447C31.3162 5.96878 31.3519 5.93318 31.3519 5.86198V5.75517C31.3519 5.64837 31.2447 5.64837 31.2447 5.64837H31.1375V5.43477H31.2447C31.3519 5.43477 31.5663 5.54157 31.6735 5.54157C31.7806 5.54157 31.7806 5.64837 31.7806 5.86198V6.39599C31.7806 6.46719 31.8164 6.50279 31.8878 6.50279V6.60959H31.5663L31.4591 6.50279C31.3519 6.60959 31.2447 6.7164 31.1375 6.7164ZM32.4217 6.7164H31.993V5.11641H32.4217V6.7164ZM34.6686 6.07763C34.6686 6.29124 34.5614 6.39804 34.5614 6.50484C34.4542 6.61165 34.2398 6.61165 34.0275 6.61165C33.8152 6.61165 33.7059 6.61165 33.4916 6.50484C33.3844 6.39804 33.3844 6.29124 33.3844 6.07763V5.22527H33.7059V6.18444C33.7059 6.29124 33.8131 6.39804 34.0275 6.39804C34.2419 6.39804 34.3491 6.29124 34.3491 6.18444V5.22527H34.7778V6.07763H34.6706H34.6686ZM36.06 6.7164H35.7384V5.97083C35.7384 5.86403 35.6312 5.75723 35.524 5.75723C35.4168 5.75723 35.4168 5.75723 35.4168 5.86403L35.3097 5.97083V6.7164H34.9881V5.54362H35.3097V5.65042C35.4168 5.54362 35.524 5.43682 35.6312 5.43682C35.7384 5.43682 35.8456 5.54362 35.9528 5.54362C36.06 5.54362 36.06 5.65042 36.06 5.75723V6.7164ZM36.5959 5.43682H36.2744V5.11641H36.5959V5.43682ZM36.5959 6.7164H36.2744V5.54362H36.5959V6.7164ZM37.9873 5.54362L37.5586 6.7164H37.1298L36.7011 5.54362H37.1298L37.3442 6.28919L37.5586 5.54362H37.9873ZM31.1396 5.43682V5.65042C31.0324 5.75723 30.9252 5.75723 30.9252 5.86403H30.6036C30.6036 5.75723 30.6036 5.65042 30.7108 5.54362C30.9252 5.54362 31.0324 5.43682 31.1396 5.43682ZM31.1396 5.97083V6.18444H31.0324C30.9252 6.18444 30.9252 6.29124 30.9252 6.29124C30.9252 6.39804 31.0324 6.39804 31.0324 6.39804H31.1396V6.61165H31.0324C30.7108 6.61165 30.6036 6.50484 30.6036 6.29124C30.6036 6.07763 30.7108 5.97083 30.9252 5.97083H31.1396ZM28.464 6.7164V6.50279C28.5711 6.50279 28.6783 6.39599 28.6783 6.18238C28.6783 5.86198 28.5711 5.86198 28.464 5.86198V5.43477C28.8927 5.43477 29.105 5.64837 29.105 6.07353C29.105 6.49868 28.8907 6.71229 28.464 6.71229V6.7164ZM30.3892 6.7164H30.0677V5.97083C30.0677 5.86403 29.9605 5.75723 29.8533 5.75723C29.7461 5.75723 29.7461 5.75723 29.7461 5.86403L29.6389 5.97083V6.7164H29.3173V5.54362H29.6389V5.65042C29.7461 5.54362 29.8533 5.43682 29.9605 5.43682C30.0677 5.43682 30.1749 5.54362 30.2821 5.54362C30.3892 5.54362 30.3892 5.65042 30.3892 5.75723V6.7164ZM28.464 5.43682V5.75723C28.2496 5.75723 28.1424 5.86403 28.1424 6.07763C28.1424 6.29124 28.2496 6.39804 28.464 6.39804V6.61165C28.0352 6.61165 27.8229 6.39804 27.8229 6.07763C27.8229 5.65042 28.0373 5.43887 28.464 5.43887V5.43682ZM25.576 6.7164V6.50279C25.6475 6.50279 25.6832 6.46719 25.6832 6.39599C25.7904 6.39599 25.7904 6.28919 25.7904 6.28919V6.07558H25.6832L25.576 6.18238V5.96878H25.6832C25.7547 5.96878 25.7904 5.93318 25.7904 5.86198V5.75517C25.7904 5.64837 25.6832 5.64837 25.576 5.64837V5.43477C25.7904 5.43477 25.8976 5.54157 26.0048 5.54157C26.112 5.54157 26.112 5.64837 26.112 5.86198V6.50074C26.2192 6.50074 26.2192 6.60754 26.2192 6.50074V6.60754H25.8976C25.7904 6.60754 25.7904 6.50074 25.7904 6.50074C25.7904 6.60754 25.6832 6.71434 25.576 6.71434V6.7164ZM27.0746 6.7164H26.8602C26.753 6.7164 26.6459 6.7164 26.5387 6.60959C26.5387 6.60959 26.4315 6.50279 26.4315 6.39599V5.75723H26.3243V5.54362H26.4315V5.22321H26.753V5.54362H26.9674V5.75723H26.753V6.29124C26.753 6.36244 26.7888 6.39804 26.8602 6.39804H27.0746V6.71845V6.7164ZM27.6106 5.43682H27.289V5.11641H27.6106V5.43682ZM27.6106 6.7164H27.289V5.54362H27.6106V6.7164ZM25.5781 5.43682V5.65042C25.4709 5.75723 25.3637 5.75723 25.3637 5.86403H25.0421C25.0421 5.75723 25.1493 5.65042 25.1493 5.54362C25.2565 5.54362 25.3637 5.43682 25.5781 5.43682ZM25.5781 5.97083V6.18444H25.4709C25.3637 6.18444 25.3637 6.29124 25.3637 6.29124C25.3637 6.36244 25.3994 6.39804 25.4709 6.39804H25.5781V6.61165H25.3637C25.0421 6.61165 24.935 6.50484 24.935 6.29124C24.935 6.07763 25.0421 5.97083 25.3637 5.97083H25.5781ZM21.9398 6.7164V6.50279C22.0113 6.50279 22.047 6.46719 22.047 6.39599C22.1542 6.39599 22.1542 6.28919 22.1542 6.28919H22.4758C22.4758 6.39599 22.3686 6.39599 22.3686 6.50279C22.2614 6.7164 22.1542 6.7164 21.9398 6.7164ZM21.9398 6.18238V5.96878H22.1542V5.86198C22.0828 5.79077 22.0113 5.75517 21.9398 5.75517V5.43477C22.1542 5.43477 22.2614 5.54157 22.3686 5.64837C22.4758 5.75517 22.4758 5.96878 22.4758 6.18238H21.9398ZM23.5456 5.86198H23.4384C23.3312 5.86198 23.224 5.86198 23.224 5.96878C23.1526 6.03998 23.1169 6.11118 23.1169 6.18238V6.7164H22.6881V5.54362H23.1169V5.75723C23.224 5.65042 23.224 5.43682 23.4384 5.43682C23.5099 5.43682 23.5456 5.47242 23.5456 5.54362V5.86403V5.86198ZM24.8298 6.71434H24.5083V5.96878C24.5083 5.86198 24.4011 5.75517 24.4011 5.75517C24.3296 5.75517 24.2939 5.79077 24.2939 5.86198L24.1867 5.96878V6.71434H23.8651V5.54157H24.1867V5.64837C24.1867 5.54157 24.2939 5.43477 24.5083 5.43477C24.6154 5.43477 24.7226 5.54157 24.8298 5.54157V6.71434ZM21.9419 5.43477V5.64837C21.8347 5.64837 21.7275 5.75517 21.6203 5.96878H21.9419V6.18238H21.6203C21.6203 6.39599 21.7275 6.50279 21.9419 6.50279V6.7164C21.5131 6.7164 21.3008 6.50279 21.3008 6.18238C21.3008 5.96878 21.408 5.86198 21.408 5.75517C21.5152 5.54157 21.7296 5.43477 21.944 5.43477H21.9419ZM15.7373 6.71434V6.39393C15.9517 6.39393 16.0588 6.28713 16.0588 6.07353C16.0588 5.85992 15.9517 5.75312 15.7373 5.75312V5.53951C15.8445 5.53951 15.9517 5.64632 16.0588 5.64632V5.1123H16.3804V6.71229H16.0588V6.60548C15.9517 6.60548 15.9517 6.71229 15.7373 6.71229V6.71434ZM17.0215 5.43477H16.6999V5.11436H17.0215V5.43477ZM17.0215 6.71434H16.6999V5.54157H17.0215V6.71434ZM17.5574 6.71434H17.2359V5.11436H17.5574V6.71434ZM18.8416 6.71434H18.5201V5.22116H18.8416V6.71434ZM20.233 6.71434H19.9115V5.96878C19.9115 5.86198 19.9115 5.75517 19.8043 5.75517C19.6971 5.75517 19.6971 5.75517 19.6971 5.86198C19.5542 5.86198 19.4827 5.89758 19.4827 5.96878V6.71434H19.1611V5.54157H19.4827V5.64837C19.5899 5.54157 19.5899 5.43477 19.8043 5.43477C19.9115 5.43477 20.0187 5.54157 20.1259 5.54157C20.233 5.54157 20.233 5.64837 20.233 5.75517V6.71434ZM21.1957 6.71434H20.8741C20.8027 6.71434 20.7312 6.67874 20.6597 6.60754C20.5526 6.60754 20.5526 6.50074 20.5526 6.39393V5.75517H20.3382V5.54157H20.5526V5.22116H20.8741V5.54157H21.0885V5.75517H20.8741V6.39393H21.0885V6.71434H21.1957ZM15.7393 5.54157V5.75517C15.6321 5.75517 15.525 5.86198 15.525 6.07558C15.525 6.28919 15.6321 6.39599 15.7393 6.39599V6.7164H15.6321C15.4178 6.7164 15.3106 6.60959 15.2034 6.60959V6.07558C15.2034 5.86198 15.2034 5.75517 15.3106 5.64837C15.4178 5.54157 15.4178 5.43477 15.7393 5.54157C15.7393 5.43477 15.6321 5.43477 15.7393 5.54157ZM14.3479 6.71434V6.50074C14.4551 6.50074 14.6695 6.39393 14.6695 6.18033C14.6695 5.85992 14.5623 5.85992 14.3479 5.85992V5.43271C14.7767 5.43271 14.989 5.64632 14.989 6.07147C14.989 6.49663 14.7746 6.71023 14.3479 6.71023V6.71434ZM14.3479 5.43477V5.75517C14.2407 5.75517 14.1336 5.86198 14.1336 6.07558C14.1336 6.28919 14.2407 6.39599 14.3479 6.39599V6.60959C13.9192 6.60959 13.7069 6.39599 13.7069 6.07558C13.7069 5.64837 13.9212 5.43682 14.3479 5.43682V5.43477ZM11.3528 6.71434V6.50074C11.3528 6.50074 11.46 6.50074 11.46 6.39393L11.5672 6.28713V6.07353H11.46L11.3528 6.18033V5.96672H11.46C11.5315 5.96672 11.5672 5.93112 11.5672 5.85992C11.6387 5.85992 11.6744 5.82432 11.6744 5.75312C11.6744 5.64632 11.5672 5.64632 11.46 5.64632V5.43271C11.6744 5.43271 11.7816 5.53951 11.8888 5.53951C11.9959 5.53951 11.9959 5.64632 11.9959 5.85992V6.49868C11.9959 6.49868 12.1031 6.60549 12.1031 6.49868V6.60548H11.7816C11.6744 6.60548 11.6744 6.49868 11.6744 6.49868C11.46 6.60549 11.46 6.71229 11.3528 6.71229V6.71434ZM12.8514 5.32796C12.7799 5.32796 12.7799 5.32796 12.8514 5.32796C12.7799 5.32796 12.7442 5.36356 12.7442 5.43477C12.6728 5.43477 12.637 5.47037 12.637 5.54157V5.64837H12.8514V5.86198H12.637V6.82114H12.3155V5.75517H12.2083V5.54157H12.3155V5.43477C12.3155 5.22116 12.4226 5.11436 12.637 5.11436H12.8514V5.32796ZM13.7069 5.32796C13.6354 5.32796 13.6354 5.32796 13.7069 5.32796H13.5997C13.5282 5.32796 13.4925 5.36356 13.4925 5.43477C13.421 5.43477 13.3853 5.47037 13.3853 5.54157V5.64837H13.5997V5.86198H13.3853V6.82114H13.0637V5.75517H12.9565V5.54157H13.0637V5.43477C13.0637 5.22116 13.1709 5.11436 13.3853 5.11436H13.7069V5.32796ZM10.6045 5.86198C10.6045 6.07558 10.4974 6.28919 10.4974 6.39599C10.3902 6.50279 10.1758 6.60959 9.96141 6.60959H9.85422V6.39599C9.96141 6.39599 9.96141 6.28919 10.0686 6.28919C10.1758 6.18238 10.1758 6.07558 10.1758 5.96878C10.1758 5.86198 10.1758 5.64837 10.0686 5.64837C9.99714 5.57717 9.92568 5.54157 9.85422 5.54157V5.22116H9.96141C10.1758 5.22116 10.283 5.22116 10.4974 5.32796C10.4974 5.43477 10.6045 5.64837 10.6045 5.86198ZM11.3528 5.43477V5.64837C11.2456 5.75517 11.1384 5.75517 11.1384 5.86198H10.8169C10.8169 5.75517 10.9241 5.64837 10.9241 5.54157C11.0312 5.54157 11.1384 5.43477 11.3528 5.43477ZM11.3528 5.96878V6.18238H11.2456C11.1384 6.18238 11.1384 6.28919 11.1384 6.28919C11.1384 6.36039 11.1742 6.39599 11.2456 6.39599H11.3528V6.60959H11.1384C10.8169 6.60959 10.7097 6.50279 10.7097 6.28919C10.7097 6.07558 10.8169 5.96878 11.1384 5.96878H11.3528ZM9.85422 6.71434H9.10596V5.22116H9.85422V5.43477H9.53265V6.39393H9.85422V6.71434Z" fill="white"/>
<path d="M17.3321 26.6517L19.043 27.3973C19.579 27.7177 20.1129 27.9292 20.3272 28.2496C20.6488 28.57 20.8632 28.9952 20.9683 29.4224C21.0755 29.7428 21.0755 30.168 21.0755 30.5952C20.9683 31.1271 20.8611 31.5543 20.6467 31.9815C20.3252 32.7271 20.0057 33.1543 19.6841 33.4747C19.3625 33.7951 18.9358 34.0087 18.5071 34.2203C18.1855 34.3271 17.7588 34.3271 17.3301 34.3271V32.5156C17.5444 32.4088 17.6516 32.4088 17.9711 32.1951C18.0783 31.9815 18.2927 31.6632 18.6122 31.1292C18.9338 30.3836 18.9338 29.9564 18.9338 29.5292C18.8266 29.2088 18.505 28.8884 17.9711 28.6768L17.4352 28.3564L17.328 28.6768V26.6517H17.3321ZM16.0479 26.1177L17.3321 26.6517V28.57L15.7263 31.9815L16.2602 32.1951C16.689 32.4088 17.0085 32.5156 17.3301 32.5156H17.4372V34.3271C16.9013 34.2203 16.4746 34.1135 16.153 34.0067L13.0507 32.6203L16.0458 26.1177H16.0479Z" fill="#E6E7E8"/>
<path d="M27.2827 30.4883H25.0358V37.6317H27.2827V30.4883Z" fill="#E6E7E8"/>
<path d="M34.5578 26.8652L36.5903 25.906L38.4084 29.7447C38.6228 30.1719 38.73 30.4903 38.73 30.9175C38.73 31.2379 38.73 31.6631 38.6228 32.0903C38.5156 32.4107 38.3012 32.729 38.0869 33.0494C37.7653 33.3699 37.2314 33.5835 36.8026 33.9018C36.4811 34.0086 36.0544 34.2222 35.7328 34.2222C35.3041 34.329 34.8774 34.4358 34.663 34.4358C34.3414 34.4358 34.0219 34.329 33.7003 34.2222C33.3788 34.1154 33.0593 33.9018 32.8449 33.6882C32.5233 33.3678 32.3089 32.9426 32.0966 32.729L30.1713 28.8903L32.2038 27.9311L34.1291 31.8746C34.2363 32.195 34.4507 32.4086 34.7702 32.6202C35.0917 32.727 35.4112 32.727 35.84 32.5134C36.1616 32.2998 36.3759 32.0862 36.4811 31.7678C36.5883 31.4474 36.5883 31.2359 36.3739 30.8086L34.5558 26.8652H34.5578Z" fill="#E6E7E8"/>
<path d="M25.892 42.6411C27.1762 42.6411 28.3532 43.7071 28.3532 45.0935C28.3532 46.4798 27.1762 47.5458 25.892 47.5458C24.5006 47.5458 23.4307 46.4798 23.4307 45.0935C23.4307 43.7071 24.5006 42.6411 25.892 42.6411Z" fill="#EC1C24"/>
</svg>
