<svg width="80" height="80" viewBox="0 0 80 80" fill="none" xmlns="http://www.w3.org/2000/svg">
<rect width="80" height="80" rx="10" fill="#14A800"/>
<path d="M35.3287 29.1108V24.092C35.0829 24.1785 34.8401 24.2696 34.6018 24.3713C33.0053 25.0481 31.7411 26.1484 30.8078 27.669C30.5376 28.1092 30.3085 28.5902 30.1157 29.1123H35.3287V29.1108Z" fill="white"/>
<path d="M36.9512 29.111H37.3715C38.0909 28.7089 38.9726 28.504 40.0228 28.504C41.073 28.504 41.9578 28.6694 42.5755 29.0002C43.1916 29.3326 43.6514 29.7378 43.9534 30.2204C44.2539 30.703 44.4573 31.1917 44.5635 31.6879C44.6682 32.1842 44.7214 32.6137 44.7214 32.9749C44.7502 33.6381 45.0446 34.1116 45.6016 34.3984C46.1585 34.6852 46.8445 34.8279 47.6579 34.8279C48.652 34.8279 49.3895 34.6397 49.8721 34.2633C50.3532 33.8869 50.5945 33.1114 50.5945 31.9368C50.5945 30.1597 50.1347 28.6391 49.2165 27.3749C48.2969 26.1107 47.0327 25.1243 45.4225 24.4155C43.8108 23.7083 41.9517 23.3547 39.8437 23.3547C38.8376 23.3547 37.8754 23.4534 36.9527 23.6431V29.111H36.9512Z" fill="white"/>
<path d="M35.3287 47.6456C35.2665 47.2313 35.2346 46.7851 35.2346 46.3025V33.6988C35.2346 33.2208 35.2665 32.7761 35.3287 32.3633V30.7334H29.668C29.4935 31.6303 29.407 32.6183 29.407 33.6973V46.301C29.407 48.8005 29.8729 50.8114 30.8077 52.332C31.7411 53.8527 33.0052 54.9514 34.6018 55.6298C34.84 55.7315 35.0844 55.8225 35.3287 55.909V47.6456Z" fill="white"/>
<path d="M49.8706 45.3979C49.388 45.0063 48.6352 44.8105 47.6124 44.8105C46.8293 44.8105 46.1676 44.9456 45.6243 45.2173C45.0825 45.4889 44.7805 45.97 44.7213 46.662C44.6606 47.1446 44.5787 47.6561 44.4724 48.1979C44.3662 48.7396 44.1704 49.2587 43.8851 49.7564C43.5983 50.2527 43.1551 50.667 42.5526 50.9994C41.9501 51.3317 41.1367 51.4956 40.1138 51.4956C38.8072 51.4956 37.7555 51.1982 36.9526 50.6109V56.358C37.8632 56.5477 38.8117 56.6449 39.7982 56.6449C41.9061 56.6449 43.7743 56.2837 45.3997 55.5613C47.0266 54.8389 48.2983 53.7993 49.2165 52.4441C50.1346 51.0889 50.5945 49.5075 50.5945 47.7016C50.5945 46.5573 50.3532 45.7894 49.8721 45.3979H49.8706Z" fill="white"/>
<path d="M63.5989 12H16.4011C13.9704 12 12 13.9704 12 16.4011V63.5987C12 66.0294 13.9704 67.9998 16.4011 67.9998H63.5989C66.0296 67.9998 68 66.0294 68 63.5987V16.4011C68 13.9704 66.0296 12 63.5989 12Z" stroke="white" stroke-width="1.06233" stroke-miterlimit="10"/>
</svg>
