<svg width="80" height="80" viewBox="0 0 80 80" fill="none" xmlns="http://www.w3.org/2000/svg">
<rect width="80" height="80" rx="40" fill="#2E9A57"/>
<path d="M42.9343 34.2309C42.3419 32.6067 41.5003 31.1741 40.4079 29.9329C39.3141 28.6917 38.0027 27.7261 36.4736 27.0359C34.9431 26.3458 33.2529 26 31.4014 26H12V52.8622H19.301L19.4388 33.4388H31.148L31.1769 33.4429C31.2471 33.4415 31.3174 33.4388 31.389 33.4388C35.2503 33.4388 38.3801 36.1222 38.3801 39.4311C38.3801 41.7041 36.9047 43.6809 34.7296 44.6961C33.9292 45.2954 32.9016 45.3146 31.4235 45.5612H20.9541V53L31.4014 52.8622C33.2529 52.8622 34.9431 52.5165 36.4736 51.8263C38.0027 51.1362 39.3141 50.176 40.4079 48.9486C41.5003 47.7198 42.3419 46.2941 42.9343 44.6699C43.5253 43.0458 43.8214 41.2991 43.8214 39.4325C43.8214 37.5659 43.5253 35.8578 42.9343 34.2322V34.2309Z" fill="#EFFFF5"/>
<path d="M50.8648 45.5612H50.5713C50.1181 45.5612 49.6759 45.5103 49.2517 45.4152C48.7792 45.3656 48.5643 45.2871 48.4251 45.1686C46.137 44.3021 44.5101 42.0912 44.5101 39.5C44.5101 36.1525 47.2239 33.4388 50.5713 33.4388H67.9285L68.0056 26.0565H50.6829C48.8136 26.0565 47.1233 26.4022 45.6135 27.0938C44.1024 27.7853 42.8033 28.7523 41.7151 29.9935C40.6268 31.2361 39.7879 32.6701 39.1997 34.2956C38.6101 35.9225 38.3167 37.6568 38.3167 39.5C38.3167 41.3432 38.6101 43.1174 39.1997 44.743C39.7893 46.3698 40.6268 47.797 41.7151 49.0258C42.8033 50.2545 44.1024 51.2147 45.6135 51.9062C47.1233 52.5977 48.8136 52.9435 50.6829 52.9435H68.0056L68.0662 45.5612L54.153 45.699C52.7506 45.699 52.4448 45.699 50.8648 45.5612Z" fill="#EFFFF5"/>
</svg>
