<svg width="80" height="80" viewBox="0 0 80 80" fill="none" xmlns="http://www.w3.org/2000/svg">
<rect width="80" height="80" rx="10" fill="#14A800"/>
<path d="M35.3288 29.111V24.0923C35.0829 24.1788 34.8401 24.2698 34.6019 24.3715C33.0053 25.0484 31.7411 26.1486 30.8078 27.6693C30.5377 28.1094 30.3085 28.5905 30.1158 29.1125H35.3288V29.111Z" fill="white"/>
<path d="M36.9511 29.1112H37.3715C38.0909 28.709 38.9726 28.5042 40.0228 28.5042C41.073 28.5042 41.9578 28.6696 42.5754 29.0004C43.1916 29.3328 43.6514 29.738 43.9534 30.2206C44.2539 30.7032 44.4573 31.1919 44.5635 31.6881C44.6682 32.1844 44.7213 32.6139 44.7213 32.975C44.7502 33.6382 45.0446 34.1117 45.6015 34.3986C46.1585 34.6854 46.8445 34.828 47.6579 34.828C48.652 34.828 49.3895 34.6399 49.8721 34.2635C50.3532 33.8871 50.5945 33.1116 50.5945 31.937C50.5945 30.1599 50.1347 28.6392 49.2165 27.3751C48.2968 26.1109 47.0327 25.1245 45.4225 24.4157C43.8108 23.7085 41.9517 23.3549 39.8437 23.3549C38.8375 23.3549 37.8754 23.4536 36.9527 23.6433V29.1112H36.9511Z" fill="white"/>
<path d="M35.3288 47.6456C35.2666 47.2313 35.2347 46.7851 35.2347 46.3025V33.6988C35.2347 33.2208 35.2666 32.7761 35.3288 32.3633V30.7334H29.6681C29.4935 31.6303 29.407 32.6183 29.407 33.6973V46.301C29.407 48.8005 29.873 50.8114 30.8078 52.332C31.7411 53.8527 33.0053 54.9514 34.6018 55.6298C34.8401 55.7315 35.0844 55.8225 35.3288 55.909V47.6456Z" fill="white"/>
<path d="M49.8706 45.398C49.388 45.0065 48.6353 44.8107 47.6124 44.8107C46.8293 44.8107 46.1676 44.9458 45.6243 45.2175C45.0825 45.4891 44.7805 45.9702 44.7213 46.6622C44.6606 47.1448 44.5787 47.6562 44.4725 48.198C44.3662 48.7398 44.1704 49.2588 43.8851 49.7566C43.5983 50.2529 43.1552 50.6672 42.5527 50.9995C41.9502 51.3319 41.1367 51.4958 40.1139 51.4958C38.8072 51.4958 37.7555 51.1983 36.9527 50.611V56.3582C37.8632 56.5479 38.8117 56.645 39.7982 56.645C41.9062 56.645 43.7743 56.2839 45.3997 55.5615C47.0266 54.8391 48.2984 53.7995 49.2165 52.4443C50.1347 51.0891 50.5945 49.5077 50.5945 47.7018C50.5945 46.5575 50.3532 45.7896 49.8721 45.398H49.8706Z" fill="white"/>
<path d="M63.5989 12.0001H16.4011C13.9704 12.0001 12 13.9705 12 16.4012V63.5988C12 66.0295 13.9704 67.9999 16.4011 67.9999H63.5989C66.0296 67.9999 68 66.0295 68 63.5988V16.4012C68 13.9705 66.0296 12.0001 63.5989 12.0001Z" stroke="white" stroke-width="1.06233" stroke-miterlimit="10"/>
</svg>
