<svg width="24" height="24" viewBox="0 0 24 24" fill="none" xmlns="http://www.w3.org/2000/svg">
<path d="M5.04031 20.1862V19.0432C5.04031 18.6049 4.77348 18.3192 4.31611 18.3192C4.08747 18.3192 3.83973 18.3954 3.66821 18.6431C3.53488 18.4335 3.34434 18.3192 3.0585 18.3192C2.86788 18.3192 2.67743 18.3763 2.52492 18.5859V18.3573H2.12476V20.1862H2.52492V19.1765C2.52492 18.8527 2.69644 18.7002 2.96328 18.7002C3.22994 18.7002 3.36344 18.8717 3.36344 19.1765V20.1862H3.7636V19.1765C3.7636 18.8527 3.95405 18.7002 4.20179 18.7002C4.46862 18.7002 4.60195 18.8717 4.60195 19.1765V20.1862H5.04031ZM10.9665 18.3573H10.3187V17.8048H9.91849V18.3573H9.55643V18.7192H9.9184V19.5575C9.9184 19.9767 10.0899 20.2243 10.5473 20.2243C10.7188 20.2243 10.9093 20.1672 11.0428 20.091L10.9284 19.748C10.814 19.8242 10.6807 19.8433 10.5854 19.8433C10.3949 19.8433 10.3187 19.729 10.3187 19.5385V18.7192H10.9665V18.3573ZM14.3584 18.3191C14.1298 18.3191 13.9773 18.4335 13.882 18.5859V18.3573H13.4819V20.1862H13.882V19.1575C13.882 18.8527 14.0154 18.6812 14.2631 18.6812C14.3393 18.6812 14.4346 18.7003 14.5108 18.7193L14.6251 18.3383C14.5489 18.3192 14.4346 18.3192 14.3584 18.3192V18.3191ZM9.23248 18.5097C9.04186 18.3763 8.77511 18.3192 8.48927 18.3192C8.03199 18.3192 7.72714 18.5478 7.72714 18.9098C7.72714 19.2146 7.95578 19.3861 8.35594 19.4432L8.54647 19.4623C8.7561 19.5004 8.87042 19.5575 8.87042 19.6528C8.87042 19.7861 8.718 19.8814 8.45116 19.8814C8.18442 19.8814 7.97479 19.7861 7.84137 19.6909L7.65084 19.9957C7.86047 20.1481 8.14631 20.2243 8.43207 20.2243C8.96565 20.2243 9.27059 19.9767 9.27059 19.6337C9.27059 19.3099 9.02285 19.1384 8.6417 19.0813L8.45116 19.0622C8.27964 19.0431 8.14631 19.0051 8.14631 18.8908C8.14631 18.7574 8.27964 18.6812 8.48927 18.6812C8.718 18.6812 8.94664 18.7764 9.06096 18.8336L9.23248 18.5097ZM19.8655 18.3192C19.6367 18.3192 19.4843 18.4335 19.389 18.5859V18.3573H18.9888V20.1862H19.389V19.1575C19.389 18.8527 19.5224 18.6812 19.7701 18.6812C19.8464 18.6812 19.9417 18.7003 20.0179 18.7193L20.1322 18.3383C20.056 18.3192 19.9417 18.3192 19.8655 18.3192ZM14.7586 19.2718C14.7586 19.8242 15.1396 20.2243 15.7304 20.2243C15.9972 20.2243 16.1877 20.1672 16.3782 20.0148L16.1877 19.6909C16.0353 19.8052 15.8828 19.8623 15.7113 19.8623C15.3874 19.8623 15.1587 19.6337 15.1587 19.2718C15.1587 18.9289 15.3874 18.7002 15.7113 18.6812C15.8828 18.6812 16.0353 18.7383 16.1877 18.8527L16.3782 18.5288C16.1877 18.3763 15.9972 18.3192 15.7304 18.3192C15.1396 18.3192 14.7586 18.7193 14.7586 19.2718ZM18.4553 19.2718V18.3573H18.0552V18.5859C17.9218 18.4145 17.7312 18.3192 17.4835 18.3192C16.969 18.3192 16.5688 18.7193 16.5688 19.2718C16.5688 19.8242 16.969 20.2243 17.4835 20.2243C17.7502 20.2243 17.9409 20.1291 18.0552 19.9576V20.1862H18.4553V19.2718ZM16.988 19.2718C16.988 18.9479 17.1977 18.6812 17.5406 18.6812C17.8646 18.6812 18.0933 18.9289 18.0933 19.2718C18.0933 19.5956 17.8646 19.8623 17.5406 19.8623C17.1977 19.8432 16.988 19.5956 16.988 19.2718ZM12.2052 18.3192C11.6716 18.3192 11.2904 18.7002 11.2904 19.2718C11.2904 19.8433 11.6715 20.2243 12.2242 20.2243C12.4909 20.2243 12.7577 20.1481 12.9674 19.9767L12.7768 19.6909C12.6243 19.8052 12.4338 19.8814 12.2433 19.8814C11.9955 19.8814 11.7478 19.7671 11.6906 19.4432H13.0436V19.2908C13.0627 18.7002 12.7197 18.3192 12.2052 18.3192ZM12.2052 18.6621C12.4528 18.6621 12.6244 18.8146 12.6624 19.1003H11.7097C11.7478 18.8527 11.9193 18.6621 12.2052 18.6621ZM22.133 19.2718V17.6333H21.7329V18.5859C21.5995 18.4145 21.4089 18.3192 21.1612 18.3192C20.6467 18.3192 20.2465 18.7193 20.2465 19.2718C20.2465 19.8242 20.6467 20.2243 21.1612 20.2243C21.428 20.2243 21.6185 20.1291 21.7329 19.9576V20.1862H22.133V19.2718ZM20.6658 19.2718C20.6658 18.9479 20.8753 18.6812 21.2184 18.6812C21.5423 18.6812 21.771 18.9289 21.771 19.2718C21.771 19.5956 21.5423 19.8623 21.2184 19.8623C20.8753 19.8432 20.6658 19.5956 20.6658 19.2718ZM7.28878 19.2718V18.3573H6.88861V18.5859C6.7552 18.4145 6.56466 18.3192 6.31693 18.3192C5.80244 18.3192 5.40228 18.7193 5.40228 19.2718C5.40228 19.8242 5.80244 20.2243 6.31693 20.2243C6.58376 20.2243 6.77429 20.1291 6.88861 19.9576V20.1862H7.28878V19.2718ZM5.80244 19.2718C5.80244 18.9479 6.01207 18.6812 6.35503 18.6812C6.67898 18.6812 6.90771 18.9289 6.90771 19.2718C6.90771 19.5956 6.67898 19.8623 6.35503 19.8623C6.01207 19.8432 5.80244 19.5956 5.80244 19.2718Z" fill="black"/>
<path d="M9.09851 4.46777H15.101V15.2512H9.09851V4.46777Z" fill="#FF5F00"/>
<path d="M9.47998 9.85821C9.47998 7.66727 10.509 5.72393 12.0905 4.46647C10.9282 3.552 9.46097 2.99951 7.86032 2.99951C4.06814 2.99951 1.00024 6.06683 1.00024 9.85821C1.00024 13.6495 4.06814 16.7169 7.86023 16.7169C9.46089 16.7169 10.9281 16.1644 12.0905 15.2499C10.509 14.0115 9.47998 12.0491 9.47998 9.85821Z" fill="#EB001B"/>
<path d="M23.2003 9.85821C23.2003 13.6495 20.1324 16.7169 16.3403 16.7169C14.7396 16.7169 13.2724 16.1644 12.11 15.2499C13.7106 13.9925 14.7206 12.0491 14.7206 9.85821C14.7206 7.66727 13.6915 5.72393 12.11 4.46647C13.2723 3.552 14.7396 2.99951 16.3403 2.99951C20.1324 2.99951 23.2003 6.08592 23.2003 9.85821Z" fill="#F79E1B"/>
</svg>
