<svg width="60" height="61" viewBox="0 0 60 61" fill="none" xmlns="http://www.w3.org/2000/svg">
<path d="M19.3989 19.8986H0V0.499756H19.3989V19.8986ZM2.70732 17.1919H16.6922V3.20648H2.70673V17.1913L2.70732 17.1919Z" fill="#253028"/>
<path d="M13.5337 6.36426H5.86475V14.0338H13.5337V6.36426Z" fill="#253028"/>
<path d="M19.3989 60.5H0V41.1011H19.3989V60.5ZM2.70732 57.7932H16.6922V43.8084H2.70673V57.7932H2.70732Z" fill="#253028"/>
<path d="M13.5337 46.9661H5.86475V54.6356H13.5337V46.9661Z" fill="#253028"/>
<path d="M60 19.8986H40.6011V0.499756H60V19.8986ZM43.3084 17.1919H57.2933V3.20648H43.3084V17.1913V17.1919Z" fill="#253028"/>
<path d="M54.2582 6.24146H46.3433V14.1564H54.2582V6.24146Z" fill="#253028"/>
<path d="M25.4839 1.85327H22.4692V4.86789H25.4839V1.85327Z" fill="#253028"/>
<path d="M28.499 4.86816H25.4844V7.88278H28.499V4.86816Z" fill="#253028"/>
<path d="M31.5146 4.86816H28.5V7.88278H31.5146V4.86816Z" fill="#253028"/>
<path d="M28.499 7.88257H25.4844V10.8972H28.499V7.88257Z" fill="#253028"/>
<path d="M28.499 13.9121H25.4844V16.9267H28.499V13.9121Z" fill="#253028"/>
<path d="M34.5293 13.9121H31.5146V16.9267H34.5293V13.9121Z" fill="#253028"/>
<path d="M34.5293 10.8977H31.5146V13.9123H34.5293V10.8977Z" fill="#253028"/>
<path d="M37.5434 7.88257H34.5288V10.8972H37.5434V7.88257Z" fill="#253028"/>
<path d="M34.5293 1.85327H31.5146V4.86789H34.5293V1.85327Z" fill="#253028"/>
<path d="M37.5434 4.86816H34.5288V7.88278H37.5434V4.86816Z" fill="#253028"/>
<path d="M37.5434 13.9121H34.5288V16.9267H37.5434V13.9121Z" fill="#253028"/>
<path d="M37.5434 16.927H34.5288V19.9416H37.5434V16.927Z" fill="#253028"/>
<path d="M22.4697 22.9568H19.4551V25.9714H22.4697V22.9568Z" fill="#253028"/>
<path d="M19.4546 22.9568H16.4399V25.9714H19.4546V22.9568Z" fill="#253028"/>
<path d="M16.4394 22.9568H13.4248V25.9714H16.4394V22.9568Z" fill="#253028"/>
<path d="M10.4096 22.9568H7.39502V25.9714H10.4096V22.9568Z" fill="#253028"/>
<path d="M4.37986 22.9568H1.36523V25.9714H4.37986V22.9568Z" fill="#253028"/>
<path d="M10.4096 32.0012H7.39502V35.0158H10.4096V32.0012Z" fill="#253028"/>
<path d="M10.4096 35.0159H7.39502V38.0305H10.4096V35.0159Z" fill="#253028"/>
<path d="M13.4243 35.0159H10.4097V38.0305H13.4243V35.0159Z" fill="#253028"/>
<path d="M19.4546 35.0159H16.4399V38.0305H19.4546V35.0159Z" fill="#253028"/>
<path d="M19.4546 32.0012H16.4399V35.0158H19.4546V32.0012Z" fill="#253028"/>
<path d="M19.4546 28.9866H16.4399V32.0012H19.4546V28.9866Z" fill="#253028"/>
<path d="M22.4697 28.9866H19.4551V32.0012H22.4697V28.9866Z" fill="#253028"/>
<path d="M25.4839 35.0159H22.4692V38.0305H25.4839V35.0159Z" fill="#253028"/>
<path d="M25.4839 32.0012H22.4692V35.0158H25.4839V32.0012Z" fill="#253028"/>
<path d="M28.499 32.0012H25.4844V35.0158H28.499V32.0012Z" fill="#253028"/>
<path d="M31.5146 32.0012H28.5V35.0158H31.5146V32.0012Z" fill="#253028"/>
<path d="M34.5293 32.0012H31.5146V35.0158H34.5293V32.0012Z" fill="#253028"/>
<path d="M37.5434 35.0159H34.5288V38.0305H37.5434V35.0159Z" fill="#253028"/>
<path d="M37.5434 38.0308H34.5288V41.0454H37.5434V38.0308Z" fill="#253028"/>
<path d="M40.5581 41.0454H37.5435V44.06H40.5581V41.0454Z" fill="#253028"/>
<path d="M22.4697 35.0159H19.4551V38.0305H22.4697V35.0159Z" fill="#253028"/>
<path d="M7.39499 32.0012H4.38037V35.0158H7.39499V32.0012Z" fill="#253028"/>
<path d="M13.4243 25.9712H10.4097V28.9858H13.4243V25.9712Z" fill="#253028"/>
<path d="M13.4243 28.9866H10.4097V32.0012H13.4243V28.9866Z" fill="#253028"/>
<path d="M10.4096 28.9866H7.39502V32.0012H10.4096V28.9866Z" fill="#253028"/>
<path d="M7.39499 25.9712H4.38037V28.9858H7.39499V25.9712Z" fill="#253028"/>
<path d="M4.37986 28.9866H1.36523V32.0012H4.37986V28.9866Z" fill="#253028"/>
<path d="M25.4839 10.8977H22.4692V13.9123H25.4839V10.8977Z" fill="#253028"/>
<path d="M25.4839 16.927H22.4692V19.9416H25.4839V16.927Z" fill="#253028"/>
<path d="M25.4839 19.9426H22.4692V22.9572H25.4839V19.9426Z" fill="#253028"/>
<path d="M25.4839 25.9712H22.4692V28.9858H25.4839V25.9712Z" fill="#253028"/>
<path d="M28.499 25.9712H25.4844V28.9858H28.499V25.9712Z" fill="#253028"/>
<path d="M31.5146 25.9712H28.5V28.9858H31.5146V25.9712Z" fill="#253028"/>
<path d="M34.5293 25.9712H31.5146V28.9858H34.5293V25.9712Z" fill="#253028"/>
<path d="M31.5146 22.9568H28.5V25.9714H31.5146V22.9568Z" fill="#253028"/>
<path d="M37.5434 22.9568H34.5288V25.9714H37.5434V22.9568Z" fill="#253028"/>
<path d="M40.5581 22.9568H37.5435V25.9714H40.5581V22.9568Z" fill="#253028"/>
<path d="M43.5727 22.9568H40.5581V25.9714H43.5727V22.9568Z" fill="#253028"/>
<path d="M46.5879 22.9568H43.5732V25.9714H46.5879V22.9568Z" fill="#253028"/>
<path d="M49.6025 22.9568H46.5879V25.9714H49.6025V22.9568Z" fill="#253028"/>
<path d="M52.6176 22.9568H49.603V25.9714H52.6176V22.9568Z" fill="#253028"/>
<path d="M52.6176 25.9712H49.603V28.9858H52.6176V25.9712Z" fill="#253028"/>
<path d="M43.5727 28.9866H40.5581V32.0012H43.5727V28.9866Z" fill="#253028"/>
<path d="M40.5581 25.9712H37.5435V28.9858H40.5581V25.9712Z" fill="#253028"/>
<path d="M37.5434 28.9866H34.5288V32.0012H37.5434V28.9866Z" fill="#253028"/>
<path d="M49.6025 32.0012H46.5879V35.0158H49.6025V32.0012Z" fill="#253028"/>
<path d="M52.6176 35.0159H49.603V38.0305H52.6176V35.0159Z" fill="#253028"/>
<path d="M55.6323 35.0159H52.6177V38.0305H55.6323V35.0159Z" fill="#253028"/>
<path d="M55.6323 38.0308H52.6177V41.0454H55.6323V38.0308Z" fill="#253028"/>
<path d="M55.6323 41.0454H52.6177V44.06H55.6323V41.0454Z" fill="#253028"/>
<path d="M49.6025 44.0608H46.5879V47.0754H49.6025V44.0608Z" fill="#253028"/>
<path d="M49.6025 53.1279H46.5879V56.1425H49.6025V53.1279Z" fill="#253028"/>
<path d="M58.6465 44.0608H55.6318V47.0754H58.6465V44.0608Z" fill="#253028"/>
<path d="M58.6465 56.1201H55.6318V59.1347H58.6465V56.1201Z" fill="#253028"/>
<path d="M46.5879 56.1201H43.5732V59.1347H46.5879V56.1201Z" fill="#253028"/>
<path d="M43.5727 56.1201H40.5581V59.1347H43.5727V56.1201Z" fill="#253028"/>
<path d="M40.5581 56.1201H37.5435V59.1347H40.5581V56.1201Z" fill="#253028"/>
<path d="M40.5581 53.1047H37.5435V56.1194H40.5581V53.1047Z" fill="#253028"/>
<path d="M37.5434 53.1047H34.5288V56.1194H37.5434V53.1047Z" fill="#253028"/>
<path d="M40.5581 50.0901H37.5435V53.1047H40.5581V50.0901Z" fill="#253028"/>
<path d="M40.5581 47.0754H37.5435V50.0901H40.5581V47.0754Z" fill="#253028"/>
<path d="M37.5434 44.0608H34.5288V47.0754H37.5434V44.0608Z" fill="#253028"/>
<path d="M34.5293 44.0608H31.5146V47.0754H34.5293V44.0608Z" fill="#253028"/>
<path d="M31.5146 44.0608H28.5V47.0754H31.5146V44.0608Z" fill="#253028"/>
<path d="M34.5293 47.0754H31.5146V50.0901H34.5293V47.0754Z" fill="#253028"/>
<path d="M31.5146 47.0754H28.5V50.0901H31.5146V47.0754Z" fill="#253028"/>
<path d="M25.4839 53.1047H22.4692V56.1194H25.4839V53.1047Z" fill="#253028"/>
<path d="M25.4839 41.0454H22.4692V44.06H25.4839V41.0454Z" fill="#253028"/>
<path d="M28.499 47.0754H25.4844V50.0901H28.499V47.0754Z" fill="#253028"/>
<path d="M31.5146 50.0901H28.5V53.1047H31.5146V50.0901Z" fill="#253028"/>
<path d="M28.499 50.0901H25.4844V53.1047H28.499V50.0901Z" fill="#253028"/>
<path d="M31.5146 53.1047H28.5V56.1194H31.5146V53.1047Z" fill="#253028"/>
<path d="M28.499 56.1201H25.4844V59.1347H28.499V56.1201Z" fill="#253028"/>
<path d="M34.5293 41.0454H31.5146V44.06H34.5293V41.0454Z" fill="#253028"/>
<path d="M28.499 41.0454H25.4844V44.06H28.499V41.0454Z" fill="#253028"/>
<path d="M31.5146 38.0308H28.5V41.0454H31.5146V38.0308Z" fill="#253028"/>
<path d="M31.5146 35.0159H28.5V38.0305H31.5146V35.0159Z" fill="#253028"/>
<path d="M28.499 38.0308H25.4844V41.0454H28.499V38.0308Z" fill="#253028"/>
<path d="M25.4839 44.0608H22.4692V47.0754H25.4839V44.0608Z" fill="#253028"/>
<path d="M37.5434 50.0901H34.5288V53.1047H37.5434V50.0901Z" fill="#253028"/>
<path d="M34.5293 56.1201H31.5146V59.1347H34.5293V56.1201Z" fill="#253028"/>
<path d="M43.5727 44.0608H40.5581V47.0754H43.5727V44.0608Z" fill="#253028"/>
<path d="M46.5879 47.0754H43.5732V50.0901H46.5879V47.0754Z" fill="#253028"/>
<path d="M55.6323 47.0754H52.6177V50.0901H55.6323V47.0754Z" fill="#253028"/>
<path d="M55.6323 50.0901H52.6177V53.1047H55.6323V50.0901Z" fill="#253028"/>
<path d="M52.6176 50.0901H49.603V53.1047H52.6176V50.0901Z" fill="#253028"/>
<path d="M58.6465 50.0901H55.6318V53.1047H58.6465V50.0901Z" fill="#253028"/>
<path d="M46.5879 50.0901H43.5732V53.1047H46.5879V50.0901Z" fill="#253028"/>
<path d="M55.6323 53.1047H52.6177V56.1194H55.6323V53.1047Z" fill="#253028"/>
<path d="M55.6323 56.1201H52.6177V59.1347H55.6323V56.1201Z" fill="#253028"/>
<path d="M49.6025 38.0308H46.5879V41.0454H49.6025V38.0308Z" fill="#253028"/>
<path d="M46.5879 32.0012H43.5732V35.0158H46.5879V32.0012Z" fill="#253028"/>
<path d="M46.5879 35.0159H43.5732V38.0305H46.5879V35.0159Z" fill="#253028"/>
<path d="M43.5727 41.0454H40.5581V44.06H43.5727V41.0454Z" fill="#253028"/>
<path d="M43.5727 35.0159H40.5581V38.0305H43.5727V35.0159Z" fill="#253028"/>
<path d="M43.5727 38.0308H40.5581V41.0454H43.5727V38.0308Z" fill="#253028"/>
<path d="M49.6025 28.9866H46.5879V32.0012H49.6025V28.9866Z" fill="#253028"/>
<path d="M49.6025 41.0454H46.5879V44.06H49.6025V41.0454Z" fill="#253028"/>
<path d="M52.6176 41.0454H49.603V44.06H52.6176V41.0454Z" fill="#253028"/>
<path d="M55.6323 25.9712H52.6177V28.9858H55.6323V25.9712Z" fill="#253028"/>
<path d="M55.6323 28.9866H52.6177V32.0012H55.6323V28.9866Z" fill="#253028"/>
<path d="M58.6465 22.9568H55.6318V25.9714H58.6465V22.9568Z" fill="#253028"/>
<path d="M55.6323 32.0012H52.6177V35.0158H55.6323V32.0012Z" fill="#253028"/>
<path d="M31.5146 19.9426H28.5V22.9572H31.5146V19.9426Z" fill="#253028"/>
<path d="M34.5293 19.9426H31.5146V22.9572H34.5293V19.9426Z" fill="#253028"/>
</svg>
