<svg width="22" height="8" viewBox="0 0 22 8" fill="none" xmlns="http://www.w3.org/2000/svg">
<path d="M11.3781 3.16855C11.3656 4.15806 12.2601 4.71022 12.9339 5.03854C13.6262 5.37536 13.8588 5.59138 13.856 5.89263C13.8509 6.35362 13.3038 6.55709 12.7919 6.565C11.8987 6.57883 11.3794 6.32389 10.9666 6.13107L10.6448 7.6364C11.059 7.82724 11.826 7.99367 12.6214 8.00098C14.4884 8.00098 15.7098 7.07952 15.7164 5.65084C15.7237 3.83765 13.2081 3.73729 13.2253 2.92684C13.2312 2.6811 13.4657 2.41885 13.9796 2.35218C14.234 2.31849 14.9362 2.29272 15.7323 2.65927L16.0448 1.20284C15.6166 1.04697 15.0664 0.897721 14.3813 0.897721C12.624 0.897721 11.3881 1.83173 11.3781 3.16855ZM19.0473 1.02317C18.7063 1.02317 18.4191 1.222 18.2908 1.52712L15.6239 7.894H17.4896L17.8608 6.86814H20.1406L20.3559 7.894H22.0002L20.5653 1.02317H19.0473ZM19.3083 2.87924L19.8467 5.45931H18.3721L19.3083 2.87924ZM9.11615 1.02326L7.64559 7.89391H9.42338L10.8933 1.02309H9.11615M6.48621 1.02309L4.6358 5.69973L3.88728 1.72338C3.79945 1.27949 3.45261 1.02317 3.06744 1.02317H0.0426113L0.000244141 1.22269C0.621229 1.35742 1.32678 1.57473 1.75423 1.80724C2.01582 1.94927 2.09042 2.07343 2.17635 2.41095L3.59406 7.894H5.47274L8.35303 1.02317L6.48621 1.02309Z" fill="url(#paint0_linear_32_8840)"/>
<defs>
<linearGradient id="paint0_linear_32_8840" x1="1011.43" y1="22.2501" x2="1031.99" y2="-707.265" gradientUnits="userSpaceOnUse">
<stop stop-color="#222357"/>
<stop offset="1" stop-color="#254AA5"/>
</linearGradient>
</defs>
</svg>
