<svg xmlns="http://www.w3.org/2000/svg" width="24" height="24" viewBox="0 0 24 24" fill="none">
    <mask id="mask0_439_2678" style="mask-type:alpha" maskUnits="userSpaceOnUse" x="0" y="0" width="24" height="24">
        <rect width="24" height="24" fill="#D9D9D9"/>
    </mask>
    <g mask="url(#mask0_439_2678)">
        <path d="M17.55 9.88652L21.4404 5.99037C21.5378 5.89294 21.6535 5.84422 21.7875 5.84422C21.9215 5.84422 22.0436 5.89294 22.1539 5.99037C22.2641 6.08781 22.316 6.20672 22.3096 6.34712C22.3032 6.48751 22.2513 6.60641 22.1539 6.70385L18.1154 10.7231C17.9538 10.8846 17.7654 10.9654 17.55 10.9654C17.3346 10.9654 17.1462 10.8846 16.9846 10.7231L15.0712 8.80962C14.9737 8.71219 14.9218 8.59969 14.9154 8.47212C14.909 8.34456 14.9609 8.22564 15.0712 8.11537C15.1733 8.01794 15.2924 7.96922 15.4285 7.96922C15.5646 7.96922 15.6814 8.01794 15.7788 8.11537L17.55 9.88652ZM9 11.3846C8.175 11.3846 7.46875 11.0909 6.88125 10.5034C6.29375 9.91587 6 9.20962 6 8.38462C6 7.55961 6.29375 6.85335 6.88125 6.26585C7.46875 5.67835 8.175 5.3846 9 5.3846C9.825 5.3846 10.5313 5.67835 11.1188 6.26585C11.7063 6.85335 12 7.55961 12 8.38462C12 9.20962 11.7063 9.91587 11.1188 10.5034C10.5313 11.0909 9.825 11.3846 9 11.3846ZM2 17.5769V16.9692C2 16.5564 2.12019 16.1702 2.36057 15.8106C2.60096 15.451 2.92436 15.1718 3.33078 14.9731C4.27436 14.5205 5.21858 14.1811 6.16345 13.9548C7.10833 13.7285 8.05385 13.6154 9 13.6154C9.94615 13.6154 10.8917 13.7285 11.8366 13.9548C12.7814 14.1811 13.7256 14.5205 14.6692 14.9731C15.0756 15.1718 15.399 15.451 15.6394 15.8106C15.8798 16.1702 16 16.5564 16 16.9692V17.5769C16 17.8705 15.9003 18.117 15.701 18.3163C15.5016 18.5157 15.2551 18.6154 14.9615 18.6154H3.03845C2.74487 18.6154 2.49839 18.5157 2.29902 18.3163C2.09967 18.117 2 17.8705 2 17.5769ZM3 17.6154H15V16.9692C15 16.7474 14.9285 16.5391 14.7856 16.3442C14.6426 16.1494 14.4449 15.9846 14.1923 15.85C13.3692 15.4513 12.5206 15.1458 11.6464 14.9336C10.7722 14.7215 9.89008 14.6154 9 14.6154C8.10992 14.6154 7.22778 14.7215 6.3536 14.9336C5.4794 15.1458 4.63077 15.4513 3.8077 15.85C3.55513 15.9846 3.35737 16.1494 3.21442 16.3442C3.07148 16.5391 3 16.7474 3 16.9692V17.6154ZM9 10.3846C9.55 10.3846 10.0208 10.1888 10.4125 9.79712C10.8042 9.40546 11 8.93462 11 8.38462C11 7.83462 10.8042 7.36379 10.4125 6.97212C10.0208 6.58046 9.55 6.38462 9 6.38462C8.45 6.38462 7.97917 6.58046 7.5875 6.97212C7.19583 7.36379 7 7.83462 7 8.38462C7 8.93462 7.19583 9.40546 7.5875 9.79712C7.97917 10.1888 8.45 10.3846 9 10.3846Z" fill="#BEBEBE"/>
    </g>
</svg>
