<svg xmlns="http://www.w3.org/2000/svg" width="24" height="24" viewBox="0 0 20 16" fill="none">
    <path d="M17.9167 15.5H2.08333C0.935 15.5 0 14.565 0 13.4167V2.58333C0 1.435 0.935 0.5 2.08333 0.5H17.9167C19.065 0.5 20 1.435 20 2.58333V13.4167C20 14.565 19.065 15.5 17.9167 15.5ZM2.08333 1.33333C1.39417 1.33333 0.833333 1.89417 0.833333 2.58333V13.4167C0.833333 14.1058 1.39417 14.6667 2.08333 14.6667H17.9167C18.6058 14.6667 19.1667 14.1058 19.1667 13.4167V2.58333C19.1667 1.89417 18.6058 1.33333 17.9167 1.33333H2.08333Z" fill="#BEBEBE"/>
    <path d="M6.24984 8.00003C5.1015 8.00003 4.1665 7.06503 4.1665 5.91669C4.1665 4.76836 5.1015 3.83336 6.24984 3.83336C7.39817 3.83336 8.33317 4.76836 8.33317 5.91669C8.33317 7.06503 7.39817 8.00003 6.24984 8.00003ZM6.24984 4.66669C5.56067 4.66669 4.99984 5.22753 4.99984 5.91669C4.99984 6.60586 5.56067 7.16669 6.24984 7.16669C6.939 7.16669 7.49984 6.60586 7.49984 5.91669C7.49984 5.22753 6.939 4.66669 6.24984 4.66669Z" fill="#BEBEBE"/>
    <path d="M9.58333 12.1667C9.35333 12.1667 9.16667 11.98 9.16667 11.75V10.9167C9.16667 10.2275 8.60583 9.66669 7.91667 9.66669H4.58333C3.89417 9.66669 3.33333 10.2275 3.33333 10.9167V11.75C3.33333 11.98 3.14667 12.1667 2.91667 12.1667C2.68667 12.1667 2.5 11.98 2.5 11.75V10.9167C2.5 9.76836 3.435 8.83336 4.58333 8.83336H7.91667C9.065 8.83336 10 9.76836 10 10.9167V11.75C10 11.98 9.81333 12.1667 9.58333 12.1667Z" fill="#BEBEBE"/>
    <path d="M17.0832 5.49997H12.0832C11.8532 5.49997 11.6665 5.31331 11.6665 5.08331C11.6665 4.85331 11.8532 4.66664 12.0832 4.66664H17.0832C17.3132 4.66664 17.4998 4.85331 17.4998 5.08331C17.4998 5.31331 17.3132 5.49997 17.0832 5.49997Z" fill="#BEBEBE"/>
    <path d="M17.0832 8.83333H12.0832C11.8532 8.83333 11.6665 8.64667 11.6665 8.41667C11.6665 8.18667 11.8532 8 12.0832 8H17.0832C17.3132 8 17.4998 8.18667 17.4998 8.41667C17.4998 8.64667 17.3132 8.83333 17.0832 8.83333Z" fill="#BEBEBE"/>
    <path d="M17.0832 12.1667H12.0832C11.8532 12.1667 11.6665 11.98 11.6665 11.75C11.6665 11.52 11.8532 11.3334 12.0832 11.3334H17.0832C17.3132 11.3334 17.4998 11.52 17.4998 11.75C17.4998 11.98 17.3132 12.1667 17.0832 12.1667Z" fill="#BEBEBE"/>
</svg>
