<svg xmlns="http://www.w3.org/2000/svg" width="24" height="24" viewBox="0 0 24 24" fill="none">
    <mask id="mask0_181_471" style="mask-type:alpha" maskUnits="userSpaceOnUse" x="0" y="0" width="24" height="24">
        <rect width="24" height="24" fill="#D9D9D9"/>
    </mask>
    <g mask="url(#mask0_181_471)">
        <path d="M12 13.4L13 14.1846C13.1577 14.309 13.3192 14.3131 13.4846 14.1971C13.65 14.0811 13.7039 13.9256 13.6462 13.7308L13.2385 12.4462L14.4519 11.5115C14.5968 11.3872 14.6404 11.2349 14.5827 11.0548C14.525 10.8747 14.3987 10.7846 14.2038 10.7846H12.8308L12.3788 9.4173C12.3211 9.22243 12.1949 9.125 12 9.125C11.8051 9.125 11.6789 9.22243 11.6212 9.4173L11.1692 10.7846H9.77115C9.57628 10.7846 9.45096 10.8747 9.39518 11.0548C9.33941 11.2349 9.38397 11.3872 9.52885 11.5115L10.7115 12.4462L10.3038 13.775C10.2461 13.9699 10.2949 14.1253 10.45 14.2414C10.6051 14.3574 10.7635 14.3532 10.925 14.2289L12 13.4ZM4.61538 19C4.16794 19 3.78685 18.8426 3.4721 18.5279C3.15737 18.2132 3 17.8321 3 17.3846V15.2788C3 15.134 3.03589 15.0013 3.10767 14.8808C3.17947 14.7603 3.2814 14.6705 3.41345 14.6115C3.89038 14.3372 4.27404 13.9737 4.56442 13.5212C4.85481 13.0686 5 12.5615 5 12C5 11.4385 4.85481 10.9314 4.56442 10.4788C4.27404 10.0263 3.89038 9.66283 3.41345 9.38847C3.2814 9.32949 3.17947 9.23974 3.10767 9.11922C3.03589 8.99872 3 8.86603 3 8.72115V6.61537C3 6.16794 3.15737 5.78685 3.4721 5.4721C3.78685 5.15737 4.16794 5 4.61538 5H19.3846C19.8321 5 20.2132 5.15737 20.5279 5.4721C20.8426 5.78685 21 6.16794 21 6.61537V8.72115C21 8.86603 20.9641 8.99872 20.8923 9.11922C20.8205 9.23974 20.7186 9.32949 20.5865 9.38847C20.1096 9.66283 19.726 10.0263 19.4356 10.4788C19.1452 10.9314 19 11.4385 19 12C19 12.5615 19.1452 13.0686 19.4356 13.5212C19.726 13.9737 20.1096 14.3372 20.5865 14.6115C20.7186 14.6705 20.8205 14.7603 20.8923 14.8808C20.9641 15.0013 21 15.134 21 15.2788V17.3846C21 17.8321 20.8426 18.2132 20.5279 18.5279C20.2132 18.8426 19.8321 19 19.3846 19H4.61538ZM4.61538 18H19.3846C19.5641 18 19.7115 17.9423 19.8269 17.8269C19.9423 17.7115 20 17.5641 20 17.3846V15.45C19.3833 15.0833 18.8958 14.5958 18.5375 13.9875C18.1792 13.3792 18 12.7167 18 12C18 11.2833 18.1792 10.6208 18.5375 10.0125C18.8958 9.40417 19.3833 8.91667 20 8.55V6.61537C20 6.43589 19.9423 6.28846 19.8269 6.17307C19.7115 6.05769 19.5641 6 19.3846 6H4.61538C4.43589 6 4.28846 6.05769 4.17308 6.17307C4.05769 6.28846 4 6.43589 4 6.61537V8.55C4.61667 8.91667 5.10417 9.40417 5.4625 10.0125C5.82083 10.6208 6 11.2833 6 12C6 12.7167 5.82083 13.3792 5.4625 13.9875C5.10417 14.5958 4.61667 15.0833 4 15.45V17.3846C4 17.5641 4.05769 17.7115 4.17308 17.8269C4.28846 17.9423 4.43589 18 4.61538 18Z" fill="#BEBEBE"/>
    </g>
</svg>
