<svg xmlns="http://www.w3.org/2000/svg" width="24" height="24" viewBox="0 0 24 24" fill="none">
    <mask id="mask0_119_245" style="mask-type:alpha" maskUnits="userSpaceOnUse" x="0" y="0" width="24" height="24">
        <rect width="24" height="24" fill="#D9D9D9"/>
    </mask>
    <g mask="url(#mask0_119_245)">
        <path d="M6.3077 17.4231H11.6923V17.2808C11.6923 17.0539 11.63 16.8438 11.5055 16.6503C11.381 16.4569 11.2074 16.3067 10.9846 16.2C10.6639 16.0628 10.3392 15.9599 10.0104 15.8913C9.68167 15.8228 9.34487 15.7885 9 15.7885C8.65513 15.7885 8.31833 15.8228 7.98958 15.8913C7.66084 15.9599 7.33611 16.0628 7.01537 16.2C6.79259 16.3067 6.61895 16.4569 6.49445 16.6503C6.36995 16.8438 6.3077 17.0539 6.3077 17.2808V17.4231ZM14.4423 15.8846H17.5577C17.6855 15.8846 17.7911 15.8429 17.8747 15.7596C17.9582 15.6762 18 15.5707 18 15.4432C18 15.3157 17.9582 15.2099 17.8747 15.1259C17.7911 15.042 17.6855 15 17.5577 15H14.4423C14.3145 15 14.2089 15.0417 14.1253 15.1251C14.0418 15.2084 14 15.3139 14 15.4414C14 15.5689 14.0418 15.6747 14.1253 15.7587C14.2089 15.8426 14.3145 15.8846 14.4423 15.8846ZM8.99548 15C9.32541 15 9.60737 14.8845 9.84135 14.6536C10.0753 14.4226 10.1923 14.1422 10.1923 13.8122C10.1923 13.4823 10.0768 13.2003 9.84587 12.9663C9.61491 12.7324 9.33446 12.6154 9.00453 12.6154C8.67459 12.6154 8.39263 12.7309 8.15865 12.9618C7.92468 13.1928 7.8077 13.4732 7.8077 13.8032C7.8077 14.1331 7.92318 14.4151 8.15413 14.6491C8.38509 14.883 8.66554 15 8.99548 15ZM14.4423 13.5H17.5577C17.6855 13.5 17.7911 13.4583 17.8747 13.3749C17.9582 13.2916 18 13.1861 18 13.0586C18 12.9311 17.9582 12.8253 17.8747 12.7414C17.7911 12.6574 17.6855 12.6154 17.5577 12.6154H14.4423C14.3145 12.6154 14.2089 12.6571 14.1253 12.7405C14.0418 12.8238 14 12.9293 14 13.0568C14 13.1843 14.0418 13.2901 14.1253 13.3741C14.2089 13.458 14.3145 13.5 14.4423 13.5ZM4.61538 21C4.15513 21 3.77083 20.8458 3.4625 20.5375C3.15417 20.2292 3 19.8449 3 19.3846V9.61538C3 9.15513 3.15417 8.77083 3.4625 8.4625C3.77083 8.15417 4.15513 8 4.61538 8H10V4C10 3.725 10.0979 3.48958 10.2938 3.29375C10.4896 3.09792 10.725 3 11 3H13C13.275 3 13.5104 3.09792 13.7063 3.29375C13.9021 3.48958 14 3.725 14 4V8H19.3846C19.8449 8 20.2292 8.15417 20.5375 8.4625C20.8458 8.77083 21 9.15513 21 9.61538V19.3846C21 19.8449 20.8458 20.2292 20.5375 20.5375C20.2292 20.8458 19.8449 21 19.3846 21H4.61538ZM4.61538 20H19.3846C19.5641 20 19.7115 19.9423 19.8269 19.8269C19.9423 19.7115 20 19.5641 20 19.3846V9.61538C20 9.43589 19.9423 9.28846 19.8269 9.17307C19.7115 9.05769 19.5641 9 19.3846 9H14V9.76922C14 10.0372 13.9003 10.2708 13.701 10.4702C13.5016 10.6695 13.268 10.7692 13 10.7692H11C10.732 10.7692 10.4984 10.6695 10.299 10.4702C10.0997 10.2708 10 10.0372 10 9.76922V9H4.61538C4.43589 9 4.28846 9.05769 4.17308 9.17307C4.05769 9.28846 4 9.43589 4 9.61538V19.3846C4 19.5641 4.05769 19.7115 4.17308 19.8269C4.28846 19.9423 4.43589 20 4.61538 20ZM11 9.76922H13V4H11V9.76922Z" fill="#BEBEBE"/>
    </g>
</svg>
