<svg xmlns="http://www.w3.org/2000/svg" width="24" height="24" viewBox="0 0 24 24" fill="none">
    <mask id="mask0_52_221" style="mask-type:alpha" maskUnits="userSpaceOnUse" x="0" y="0" width="24" height="24">
        <rect width="24" height="24" fill="#D9D9D9"/>
    </mask>
    <g mask="url(#mask0_52_221)">
        <path d="M12.9096 3.05005C15.0585 3.25833 16.888 4.11008 18.3982 5.6053C19.9084 7.10052 20.7673 8.92441 20.975 11.077H14.5558C14.4058 10.6949 14.1894 10.3638 13.9067 10.0837C13.6241 9.80357 13.2917 9.59579 12.9096 9.46037V3.05005ZM13.9096 4.2539V8.80772C14.1699 8.97056 14.409 9.15774 14.627 9.36927C14.8449 9.58081 15.0289 9.81671 15.1789 10.077H19.7712C19.4225 8.62826 18.7205 7.37633 17.6654 6.3212C16.6103 5.26608 15.3584 4.57698 13.9096 4.2539ZM11.1404 3.05005V9.45127C10.5917 9.64661 10.1532 9.97917 9.82502 10.449C9.49682 10.9188 9.33273 11.437 9.33273 12.0038C9.33273 12.5705 9.50003 13.0792 9.83465 13.5298C10.1692 13.9805 10.6045 14.3036 11.1404 14.499V20.95C8.83015 20.7129 6.90002 19.7436 5.35002 18.0423C3.80002 16.3411 3.02502 14.3262 3.02502 11.9977C3.02502 9.66926 3.80002 7.64874 5.35002 5.93617C6.90002 4.22362 8.83015 3.26158 11.1404 3.05005ZM10.1404 4.2539C8.34168 4.65775 6.87277 5.58596 5.73367 7.03852C4.59457 8.49107 4.02502 10.1449 4.02502 12C4.02502 13.8552 4.59457 15.509 5.73367 16.9616C6.87277 18.4141 8.34168 19.3462 10.1404 19.7577V15.1154C9.60963 14.7475 9.17566 14.2946 8.83847 13.7568C8.50129 13.219 8.3327 12.6302 8.3327 11.9904C8.3327 11.3507 8.49809 10.7587 8.82887 10.2145C9.15964 9.67024 9.59682 9.21415 10.1404 8.8462V4.2539ZM14.5558 12.8847H20.975C20.7648 15.0324 19.9049 16.861 18.3954 18.3705C16.886 19.8799 15.0574 20.7398 12.9096 20.95V14.4958C13.3006 14.3604 13.6353 14.1536 13.9135 13.8752C14.1917 13.5969 14.4058 13.2667 14.5558 12.8847ZM15.1789 13.8847C15.0071 14.1321 14.8176 14.3616 14.6106 14.5731C14.4035 14.7847 14.1699 14.9654 13.9096 15.1154V19.7462C15.3712 19.4103 16.6263 18.7148 17.675 17.6597C18.7237 16.6045 19.4225 15.3462 19.7712 13.8847H15.1789Z" fill="#BEBEBE"/>
    </g>
</svg>
