<svg xmlns="http://www.w3.org/2000/svg" width="24" height="24" viewBox="0 0 24 24" fill="none">
    <mask id="mask0_119_255" style="mask-type:alpha" maskUnits="userSpaceOnUse" x="0" y="0" width="24" height="24">
        <rect width="24" height="24" fill="#D9D9D9"/>
    </mask>
    <g mask="url(#mask0_119_255)">
        <path d="M11.8462 15.9038H12.3788V15.1231C12.8455 15.0591 13.2414 14.8752 13.5663 14.5714C13.8913 14.2675 14.0539 13.8757 14.0539 13.396C14.0539 12.9802 13.8872 12.6323 13.5539 12.3525C13.2205 12.0726 12.8372 11.841 12.4038 11.6577V9.63463C12.5961 9.67179 12.7625 9.75192 12.9029 9.875C13.0433 9.99808 13.1449 10.1365 13.2077 10.2904L13.9154 9.9923C13.7859 9.69358 13.5854 9.44835 13.314 9.2566C13.0425 9.06485 12.7392 8.93829 12.4038 8.87693V8.09615H11.8462V8.87115C11.3795 8.91828 10.9837 9.07933 10.6587 9.3543C10.3337 9.62925 10.1712 9.99455 10.1712 10.4502C10.1712 10.8744 10.342 11.2341 10.6837 11.5292C11.0253 11.8243 11.4128 12.062 11.8462 12.2423V14.3519C11.5282 14.2942 11.2679 14.1686 11.0654 13.975C10.8628 13.7814 10.7218 13.5513 10.6423 13.2846L9.94037 13.5827C10.0737 14.0045 10.307 14.351 10.6404 14.6221C10.9737 14.8933 11.3756 15.0622 11.8462 15.1288V15.9038ZM12.4038 14.3462V12.4462C12.6375 12.5531 12.8447 12.6814 13.0253 12.8312C13.2059 12.9809 13.2962 13.1814 13.2962 13.4327C13.2962 13.7199 13.2135 13.9304 13.0481 14.0644C12.8827 14.1984 12.6679 14.2923 12.4038 14.3462ZM11.8462 11.4288C11.6244 11.3199 11.416 11.191 11.2212 11.0423C11.0263 10.8936 10.9289 10.6962 10.9289 10.45C10.9289 10.1834 11.0231 9.98827 11.2116 9.8645C11.4 9.74073 11.6115 9.66218 11.8462 9.62885V11.4288ZM8 18C6.32857 18 4.91071 17.4182 3.74642 16.2547C2.58214 15.0911 2 13.6741 2 12.0037C2 10.3333 2.58214 8.91506 3.74642 7.74902C4.91071 6.58301 6.32857 6 8 6H16C17.6714 6 19.0893 6.58178 20.2536 7.74535C21.4179 8.90892 22 10.3259 22 11.9963C22 13.6667 21.4179 15.0849 20.2536 16.251C19.0893 17.417 17.6714 18 16 18H8ZM8 17H16C17.3833 17 18.5625 16.5125 19.5375 15.5375C20.5125 14.5625 21 13.3833 21 12C21 10.6167 20.5125 9.4375 19.5375 8.4625C18.5625 7.4875 17.3833 7 16 7H8C6.61667 7 5.4375 7.4875 4.4625 8.4625C3.4875 9.4375 3 10.6167 3 12C3 13.3833 3.4875 14.5625 4.4625 15.5375C5.4375 16.5125 6.61667 17 8 17Z" fill="#BEBEBE"/>
    </g>
</svg>
