<svg xmlns="http://www.w3.org/2000/svg" width="24" height="24" viewBox="0 0 24 24" fill="none">
    <mask id="mask0_119_250" style="mask-type:alpha" maskUnits="userSpaceOnUse" x="0" y="0" width="24" height="24">
        <rect width="24" height="24" fill="#D9D9D9"/>
    </mask>
    <g mask="url(#mask0_119_250)">
        <path d="M2.59613 16.9691C2.59613 16.505 2.71632 16.106 2.95671 15.772C3.19709 15.4381 3.52013 15.1712 3.92583 14.9713C4.79321 14.5583 5.65446 14.2291 6.50958 13.9836C7.36471 13.7381 8.39356 13.6153 9.59613 13.6153C10.7987 13.6153 11.8275 13.7381 12.6827 13.9836C13.5378 14.2291 14.399 14.5583 15.2664 14.9713C15.6721 15.1712 15.9952 15.4381 16.2356 15.772C16.4759 16.106 16.5961 16.505 16.5961 16.9691V17.5768C16.5961 17.832 16.4965 18.0688 16.2971 18.2874C16.0977 18.506 15.8513 18.6153 15.5577 18.6153H3.63458C3.341 18.6153 3.09452 18.5156 2.89516 18.3163C2.69581 18.1169 2.59613 17.8704 2.59613 17.5768V16.9691ZM20.3654 18.6153H18.3731C18.441 18.4563 18.4952 18.2887 18.5356 18.1123C18.5759 17.936 18.5961 17.7575 18.5961 17.5768V16.923C18.5961 16.3435 18.4788 15.7965 18.2443 15.282C18.0097 14.7675 17.677 14.326 17.2461 13.9576C17.7372 14.0576 18.2102 14.1964 18.6654 14.3739C19.1205 14.5515 19.5705 14.7512 20.0154 14.973C20.4487 15.1909 20.7885 15.4699 21.0346 15.8097C21.2808 16.1496 21.4038 16.5207 21.4038 16.923V17.5768C21.4038 17.8704 21.3042 18.1169 21.1048 18.3163C20.9054 18.5156 20.659 18.6153 20.3654 18.6153ZM9.59613 11.3845C8.77113 11.3845 8.06488 11.0908 7.47738 10.5033C6.88988 9.9158 6.59613 9.20955 6.59613 8.38455C6.59613 7.55953 6.88988 6.85327 7.47738 6.26577C8.06488 5.67827 8.77113 5.38452 9.59613 5.38452C10.4211 5.38452 11.1274 5.67827 11.7149 6.26577C12.3024 6.85327 12.5961 7.55953 12.5961 8.38455C12.5961 9.20955 12.3024 9.9158 11.7149 10.5033C11.1274 11.0908 10.4211 11.3845 9.59613 11.3845ZM16.8654 8.38455C16.8654 9.20955 16.5716 9.9158 15.9841 10.5033C15.3966 11.0908 14.6904 11.3845 13.8654 11.3845C13.8231 11.3845 13.7692 11.3797 13.7038 11.3701C13.6384 11.3605 13.5846 11.3499 13.5423 11.3384C13.881 10.9235 14.1414 10.4632 14.3233 9.95752C14.5052 9.45186 14.5961 8.92673 14.5961 8.38215C14.5961 7.83758 14.5009 7.31722 14.3106 6.82107C14.1202 6.32492 13.8641 5.86146 13.5423 5.43067C13.5961 5.41146 13.65 5.39896 13.7038 5.39317C13.7577 5.38741 13.8115 5.38452 13.8654 5.38452C14.6904 5.38452 15.3966 5.67827 15.9841 6.26577C16.5716 6.85327 16.8654 7.55953 16.8654 8.38455ZM3.59613 17.6153H15.5961V16.9691C15.5961 16.7345 15.5375 16.5294 15.4202 16.3538C15.3029 16.1781 15.0923 16.0102 14.7884 15.8499C14.0423 15.4512 13.2557 15.1458 12.4288 14.9336C11.6019 14.7214 10.6577 14.6153 9.59613 14.6153C8.5346 14.6153 7.59036 14.7214 6.76343 14.9336C5.93651 15.1458 5.14998 15.4512 4.40383 15.8499C4.09998 16.0102 3.8894 16.1781 3.77208 16.3538C3.65478 16.5294 3.59613 16.7345 3.59613 16.9691V17.6153ZM9.59613 10.3845C10.1461 10.3845 10.617 10.1887 11.0086 9.79705C11.4003 9.40538 11.5961 8.93455 11.5961 8.38455C11.5961 7.83455 11.4003 7.36371 11.0086 6.97205C10.617 6.58038 10.1461 6.38455 9.59613 6.38455C9.04613 6.38455 8.5753 6.58038 8.18363 6.97205C7.79196 7.36371 7.59613 7.83455 7.59613 8.38455C7.59613 8.93455 7.79196 9.40538 8.18363 9.79705C8.5753 10.1887 9.04613 10.3845 9.59613 10.3845Z" fill="#BEBEBE"/>
    </g>
</svg>
